<svg width="50" height="50" viewBox="0 0 50 50" fill="none" xmlns="http://www.w3.org/2000/svg">
<circle cx="25" cy="25" r="25" fill="black"/>
<path d="M11.2776 14.7954C12.7309 9.97604 18.2239 6.5 24.7634 6.5H25.8263C29.3716 6.5 32.7354 7.37903 35.5566 9.03181C38.3664 10.678 40.3509 12.9221 41.3309 15.5088L32.6395 17.5076L32.6044 17.414C32.6044 17.414 32.6043 17.4139 32.6043 17.4139C31.6939 14.9878 28.8681 13.3928 25.8263 13.3928H24.7634C22.6294 13.3928 20.6735 14.5315 20.1342 16.3198C19.4851 18.4716 21.2087 20.4797 23.6205 20.9572L30.4887 22.3171C30.4892 22.3172 30.4896 22.3172 30.49 22.3173C36.5862 23.5596 40.6966 27.8305 40.6966 32.5678C40.6966 36.2895 38.1293 39.8264 33.8663 41.7402L33.8662 41.7402L33.65 41.8373C33.65 41.8373 33.65 41.8373 33.65 41.8374C31.1865 42.9435 28.4577 43.5 25.7225 43.5C23.1551 43.5001 20.5886 43.0099 18.2342 42.0297L18.0831 41.9668L18.083 41.9668C12.8518 39.7888 9.64418 35.6505 9.50474 31.1724H18.5937C18.7291 33.2223 20.2256 35.002 22.4353 35.9221C22.4353 35.9221 22.4354 35.9221 22.4354 35.9221L22.5866 35.985L22.5866 35.9851C24.6262 36.8343 27.035 36.8044 29.0418 35.9035L29.0419 35.9034L29.2581 35.8063C29.2582 35.8063 29.2582 35.8062 29.2583 35.8062C30.6612 35.1765 31.6131 33.958 31.6131 32.5678C31.6131 30.7992 30.1093 29.3805 28.1639 28.9788L28.1599 28.978L21.3421 27.6282C17.7659 26.9201 14.7744 25.1773 12.8938 22.7528L12.4987 23.0592L12.8938 22.7528C11.0188 20.3357 10.4574 17.5159 11.2776 14.7954ZM11.2776 14.7954L10.7989 14.6511L11.2776 14.7954Z" fill="white" stroke="black"/>
<path d="M38.5 37.5C36.4999 40 33.9999 41.5 30.6784 42.5502C30.6784 42.5502 29.0572 42.9155 27.9999 43C27.0267 43.0778 25.4999 43 25.4999 43V37.0364C25.4999 37.0364 26.3986 37.1168 27 37.0364C29.0686 36.7599 32 35.0063 32 32.5C32 29.9937 30 29 27.9999 28.5L25.4999 28L24 21.5L31.5 23C35 24 38.8335 26.4999 40 30C40.3958 31.1876 40.5 35 38.5 37.5Z" fill="url(#paint0_linear)"/>
<path d="M26.5976 35.1374L24.4024 31.6472L25.3527 31.336L27.2367 33.8758L27.2534 30.7136L28.2038 30.4024L28.4983 34.515L26.5976 35.1374Z" fill="url(#paint1_radial)" stroke="black" stroke-width="0.1"/>
<path d="M27.75 31.0733V34.3778" stroke="url(#paint2_linear)" stroke-width="0.5"/>
<path d="M13.5001 23.0001C15.7419 25.2418 16 25.5 20.5 27L25.5 27.9474V21.8103L24 21.5C22 21 20 19.5 20 17C20 14.5 22.5127 13 24.5 13L25.5 12.8647V7H24.8528C18.1667 7 13.0361 9.4063 11.5 14.5C10.5 17.8162 11 20.5 13.5 23L13.5001 23.0001Z" fill="url(#paint3_linear)"/>
<defs>
<linearGradient id="paint0_linear" x1="32.1157" y1="21.5" x2="32.1157" y2="43.0346" gradientUnits="userSpaceOnUse">
<stop stop-color="#0E90D8"/>
<stop offset="0.15625" stop-color="#0EA5E0"/>
<stop offset="0.28125" stop-color="#0EBCE9"/>
<stop offset="0.49165" stop-color="#00FFC2"/>
<stop offset="0.712479" stop-color="#29DCA6"/>
<stop offset="0.887959" stop-color="#17FD65"/>
<stop offset="0.964855" stop-color="#23EC5C"/>
</linearGradient>
<radialGradient id="paint1_radial" cx="0" cy="0" r="1" gradientUnits="userSpaceOnUse" gradientTransform="translate(26.9255 32.9255) rotate(71.8676) scale(2)">
<stop stop-color="#EFBE0E"/>
<stop offset="1" stop-color="#DADE1D"/>
</radialGradient>
<linearGradient id="paint2_linear" x1="28" y1="31" x2="28" y2="34.5" gradientUnits="userSpaceOnUse">
<stop stop-color="#01F7C7"/>
<stop offset="0.504476" stop-color="#0AF6BB"/>
<stop offset="1" stop-color="#14EEB4"/>
</linearGradient>
<linearGradient id="paint3_linear" x1="18.2586" y1="7" x2="18.2586" y2="27.9474" gradientUnits="userSpaceOnUse">
<stop stop-color="#2555FF"/>
<stop offset="0.483718" stop-color="#0F5DC6"/>
<stop offset="1" stop-color="#0FC3EB"/>
</linearGradient>
</defs>
</svg>
