<svg width="52" height="50" viewBox="0 0 52 50" fill="none" xmlns="http://www.w3.org/2000/svg">
<circle cx="27" cy="25" r="25" fill="black"/>
<path d="M13.2776 14.7954C14.7309 9.97604 20.2239 6.5 26.7634 6.5H27.8263C31.3716 6.5 34.7355 7.37903 37.5566 9.03181C40.3664 10.678 42.351 12.9221 43.3309 15.5088L34.6395 17.5076L34.6044 17.414C34.6044 17.414 34.6044 17.4139 34.6043 17.4139C33.6939 14.9878 30.8681 13.3928 27.8263 13.3928H26.7634C24.6294 13.3928 22.6735 14.5315 22.1342 16.3198C21.4852 18.4716 23.2087 20.4797 25.6205 20.9572L32.4888 22.3171C32.4892 22.3172 32.4896 22.3172 32.49 22.3173C38.5862 23.5596 42.6966 27.8305 42.6966 32.5678C42.6966 36.2895 40.1293 39.8264 35.8663 41.7402L35.8662 41.7402L35.65 41.8373C35.65 41.8373 35.65 41.8373 35.65 41.8374C33.1865 42.9435 30.4577 43.5 27.7225 43.5C25.1551 43.5001 22.5886 43.0099 20.2343 42.0297L20.0831 41.9668L20.083 41.9668C14.8518 39.7888 11.6442 35.6505 11.5048 31.1724H20.5937C20.7292 33.2223 22.2256 35.002 24.4353 35.9221C24.4354 35.9221 24.4354 35.9221 24.4354 35.9221L24.5866 35.985L24.5866 35.9851C26.6262 36.8343 29.035 36.8044 31.0418 35.9035L31.0419 35.9034L31.2582 35.8063C31.2582 35.8063 31.2582 35.8062 31.2583 35.8062C32.6612 35.1765 33.6131 33.958 33.6131 32.5678C33.6131 30.7992 32.1093 29.3805 30.1639 28.9788L30.1599 28.978L23.3421 27.6282C19.7659 26.9201 16.7744 25.1773 14.8938 22.7528L14.4987 23.0592L14.8938 22.7528C13.0188 20.3357 12.4574 17.5159 13.2776 14.7954ZM13.2776 14.7954L12.7989 14.6511L13.2776 14.7954Z" fill="white" stroke="black"/>
<path d="M40.5 37.5C38.4999 40 36 41.5 32.6784 42.5502C32.6784 42.5502 31.0573 42.9155 30 43C29.0267 43.0778 27.4999 43 27.4999 43V37.0364C27.4999 37.0364 28.3987 37.1168 29 37.0364C31.0686 36.7599 34 35.0063 34 32.5C34 29.9937 32 29 29.9999 28.5L27.4999 28L26 21.5L33.5 23C37 24 40.8335 26.4999 42 30C42.3958 31.1876 42.5 35 40.5 37.5Z" fill="url(#paint0_linear)"/>
<path d="M28.5976 35.1374L26.4024 31.6472L27.3528 31.336L29.2367 33.8758L29.2534 30.7136L30.2038 30.4024L30.4983 34.515L28.5976 35.1374Z" fill="url(#paint1_radial)" stroke="black" stroke-width="0.1"/>
<path d="M29.75 31.0733V34.3778" stroke="url(#paint2_linear)" stroke-width="0.5"/>
<path d="M15.5001 23.0001C17.7419 25.2418 18.0001 25.5 22.5 27L27.5 27.9474V21.8103L26 21.5C24 21 22 19.5 22 17C22 14.5 24.5127 13 26.5 13L27.5 12.8647V7H26.8528C20.1667 7 15.0361 9.4063 13.5001 14.5C12.5 17.8162 13 20.5 15.5 23L15.5001 23.0001Z" fill="url(#paint3_linear)"/>
<path d="M23.712 43.548C23.712 43.7328 23.5944 43.8672 23.3592 43.9512C23.1912 44.0184 22.9952 44.052 22.7712 44.052C22.5472 44.052 22.312 44.0212 22.0656 43.9596C21.808 43.9092 21.5924 43.8224 21.4188 43.6992C21.4076 43.688 21.402 43.6768 21.402 43.6656C21.402 43.6544 21.4076 43.6488 21.4188 43.6488C21.4356 43.6488 21.4468 43.6516 21.4524 43.6572C21.7604 43.8588 22.1944 43.9596 22.7544 43.9596C22.9448 43.9596 23.1184 43.926 23.2752 43.8588C23.432 43.786 23.5104 43.6796 23.5104 43.5396C23.5104 43.338 23.3648 43.1868 23.0736 43.086C22.872 43.0132 22.6452 42.9768 22.3932 42.9768C21.6932 42.9768 21.2144 43.2036 20.9568 43.6572C20.8784 43.7972 20.8392 43.9428 20.8392 44.094C20.8392 44.4356 21.0296 44.7352 21.4104 44.9928C21.6624 45.1608 22.0124 45.3848 22.4604 45.6648C22.8356 45.9728 23.0232 46.3564 23.0232 46.8156C23.0232 47.4372 22.704 47.9356 22.0656 48.3108C21.5336 48.6244 20.9624 48.7812 20.352 48.7812C19.7472 48.7812 19.2656 48.6748 18.9072 48.462C18.4592 48.2044 18.2352 47.832 18.2352 47.3448C18.2352 46.852 18.4144 46.4516 18.7728 46.1436C19.1368 45.83 19.5568 45.6732 20.0328 45.6732C20.296 45.6732 20.4276 45.6956 20.4276 45.7404C20.4276 45.7516 20.3828 45.7572 20.2932 45.7572C20.2036 45.7572 20.156 45.7572 20.1504 45.7572C19.6968 45.7572 19.3048 45.8916 18.9744 46.1604C18.6216 46.4348 18.4452 46.8044 18.4452 47.2692C18.4452 47.7284 18.6048 48.084 18.924 48.336C19.2432 48.5936 19.6184 48.7224 20.0496 48.7224C20.4808 48.7224 20.94 48.6216 21.4272 48.42C22.2672 48.084 22.6872 47.5604 22.6872 46.8492C22.6872 46.4124 22.494 46.0596 22.1076 45.7908C21.9844 45.7012 21.8024 45.5808 21.5616 45.4296C21.3208 45.2784 21.15 45.1692 21.0492 45.102C20.6684 44.8444 20.478 44.5308 20.478 44.1612C20.478 43.9148 20.5704 43.6908 20.7552 43.4892C20.5872 43.506 20.4444 43.5872 20.3268 43.7328C20.2148 43.8896 20.1588 44.052 20.1588 44.22C20.1588 44.6064 20.3408 44.9368 20.7048 45.2112C20.8224 45.3008 21.1584 45.5332 21.7128 45.9084C22.0712 46.2052 22.2504 46.5524 22.2504 46.95C22.2504 47.3476 22.0544 47.7144 21.6624 48.0504C21.2704 48.392 20.87 48.5628 20.4612 48.5628C20.4332 48.5628 20.4192 48.5544 20.4192 48.5376C20.4192 48.504 20.4388 48.4872 20.478 48.4872C20.6516 48.4648 20.8 48.434 20.9232 48.3948C21.2256 48.2716 21.4972 48.0756 21.738 47.8068C21.9788 47.538 22.0992 47.2552 22.0992 46.9584C22.0992 46.544 21.9228 46.2052 21.57 45.942C21.4636 45.858 21.2984 45.7432 21.0744 45.5976C20.856 45.4464 20.6936 45.3316 20.5872 45.2532C20.2288 44.99 20.0496 44.6484 20.0496 44.2284C20.0496 44.0212 20.1224 43.8392 20.268 43.6824C20.4136 43.52 20.5872 43.4388 20.7888 43.4388H20.8056C21.2032 43.058 21.7156 42.8676 22.3428 42.8676C22.97 42.8676 23.3928 43.0048 23.6112 43.2792C23.6784 43.3632 23.712 43.4528 23.712 43.548ZM26.0034 47.5212V47.538C25.8074 47.8068 25.5918 47.9412 25.3566 47.9412C25.1214 47.9412 25.0038 47.734 25.0038 47.3196C25.0038 47.1516 25.0178 46.9136 25.0458 46.6056C24.833 47.0088 24.483 47.4008 23.9958 47.7816C23.9454 47.8208 23.8502 47.8936 23.7102 48C23.6822 48.0224 23.6318 48.0336 23.559 48.0336C23.4918 48.0336 23.4582 48.0168 23.4582 47.9832C23.4582 47.7816 23.5478 47.5044 23.727 47.1516C23.9118 46.7988 24.0266 46.5468 24.0714 46.3956C24.1162 46.2388 24.1386 46.0204 24.1386 45.7404C24.1162 45.83 24.0154 46.0288 23.8362 46.3368C23.5674 46.8016 23.4162 47.034 23.3826 47.034C23.349 47.034 23.3322 47.0228 23.3322 47.0004L23.5842 46.572C23.853 46.1016 24.0266 45.7068 24.105 45.3876C24.1386 45.242 24.2058 45.1692 24.3066 45.1692C24.4074 45.1692 24.4578 45.298 24.4578 45.5556C24.4578 45.8076 24.385 46.1632 24.2394 46.6224L23.8866 47.7228C24.357 47.3644 24.749 46.9248 25.0626 46.404C25.1186 46.012 25.1942 45.7544 25.2894 45.6312C25.323 45.592 25.3846 45.5724 25.4742 45.5724C25.5694 45.5724 25.617 45.6032 25.617 45.6648C25.617 45.8328 25.5638 45.9868 25.4574 46.1268C25.3342 46.5468 25.2726 46.9556 25.2726 47.3532C25.2726 47.622 25.3566 47.7564 25.5246 47.7564C25.6086 47.7564 25.6926 47.72 25.7766 47.6472C25.8662 47.5744 25.9222 47.5268 25.9446 47.5044C25.9726 47.482 25.9838 47.4708 25.9782 47.4708C25.995 47.4708 26.0034 47.4876 26.0034 47.5212ZM28.2116 46.068C28.2116 46.2304 28.1612 46.3816 28.0604 46.5216C27.9652 46.6616 27.8728 46.7316 27.7832 46.7316C27.7664 46.7316 27.758 46.7204 27.758 46.698C27.7916 46.614 27.8308 46.5244 27.8756 46.4292C27.9204 46.3284 27.9428 46.2164 27.9428 46.0932C27.9428 45.9644 27.8952 45.9 27.8 45.9C27.6712 45.9 27.4668 46.0568 27.1868 46.3704C26.9124 46.6784 26.7192 46.9304 26.6072 47.1264L26.246 48.0924C26.2348 48.1036 26.2124 48.1092 26.1788 48.1092C26.1508 48.1092 26.106 48.0896 26.0444 48.0504C25.9884 48.0112 25.9604 47.9776 25.9604 47.9496C25.9716 47.9272 25.9856 47.8908 26.0024 47.8404C26.0248 47.79 26.0444 47.7508 26.0612 47.7228C26.2796 47.258 26.428 46.8828 26.5064 46.5972C26.5904 46.306 26.6324 46.0204 26.6324 45.7404C26.61 45.83 26.5092 46.0288 26.33 46.3368C26.0612 46.8016 25.91 47.034 25.8764 47.034C25.8428 47.034 25.826 47.0256 25.826 47.0088C25.826 46.9976 25.9408 46.8044 26.1704 46.4292C26.4056 46.054 26.5652 45.704 26.6492 45.3792C26.6828 45.2336 26.7388 45.1608 26.8172 45.1608C26.9068 45.1608 26.9516 45.2728 26.9516 45.4968C26.9516 45.9 26.8228 46.3956 26.5652 46.9836C26.8676 46.6084 27.0776 46.3564 27.1952 46.2276C27.5144 45.886 27.7636 45.7152 27.9428 45.7152C28.122 45.7152 28.2116 45.8328 28.2116 46.068ZM30.7677 46.8576C30.7733 46.8576 30.7761 46.866 30.7761 46.8828C30.7761 46.8996 30.7537 46.9472 30.7089 47.0256C30.5353 47.3056 30.2833 47.566 29.9529 47.8068C29.6225 48.042 29.3117 48.1596 29.0205 48.1596C28.6229 48.1596 28.4241 47.902 28.4241 47.3868C28.4241 47.2132 28.4437 47.0284 28.4829 46.8324C28.4325 46.7876 28.3877 46.726 28.3485 46.6476C28.3541 46.6532 28.3681 46.6616 28.3905 46.6728C28.4129 46.6784 28.4325 46.6868 28.4493 46.698C28.4717 46.7036 28.4941 46.7092 28.5165 46.7148C28.5725 46.4404 28.7433 46.1576 29.0289 45.8664C29.3145 45.5752 29.5917 45.4296 29.8605 45.4296C29.9221 45.4296 29.9529 45.438 29.9529 45.4548C29.9529 45.466 29.9137 45.494 29.8353 45.5388C29.6281 45.6508 29.4349 45.8244 29.2557 46.0596C29.0653 46.2948 28.9281 46.53 28.8441 46.7652L28.8609 46.782C29.1297 46.782 29.4097 46.6532 29.7009 46.3956C29.9921 46.138 30.1377 45.8748 30.1377 45.606C30.1377 45.5276 30.1153 45.4548 30.0705 45.3876C30.0313 45.3148 29.9641 45.2784 29.8689 45.2784C29.7737 45.2784 29.6533 45.3232 29.5077 45.4128C29.3677 45.4968 29.2893 45.5388 29.2725 45.5388C29.2613 45.5388 29.2557 45.536 29.2557 45.5304C29.2557 45.4632 29.3453 45.3932 29.5245 45.3204C29.7093 45.2476 29.8577 45.2112 29.9697 45.2112C30.0873 45.2112 30.1881 45.2476 30.2721 45.3204C30.3561 45.3932 30.3981 45.494 30.3981 45.6228C30.3981 45.9196 30.2133 46.1996 29.8437 46.4628C29.4797 46.726 29.1353 46.8716 28.8105 46.8996C28.7657 47.034 28.7433 47.1628 28.7433 47.286C28.7433 47.7508 28.9113 47.9832 29.2473 47.9832C29.5049 47.9832 29.7625 47.8824 30.0201 47.6808C30.2777 47.4736 30.4849 47.2384 30.6417 46.9752C30.6921 46.8968 30.7341 46.8576 30.7677 46.8576ZM32.9594 46.7484C32.9762 46.7484 32.9846 46.7596 32.9846 46.782C32.9846 46.8044 32.979 46.824 32.9678 46.8408C32.7774 47.16 32.5422 47.3476 32.2622 47.4036C32.2454 47.5996 32.1838 47.7648 32.0774 47.8992C31.9766 48.0336 31.8086 48.1008 31.5734 48.1008C31.3438 48.1008 31.1254 47.9916 30.9182 47.7732C30.711 47.5492 30.6074 47.3056 30.6074 47.0424C30.6074 46.8688 30.6522 46.782 30.7418 46.782C30.7978 46.782 30.8538 46.824 30.9098 46.908C31.0778 46.516 31.3158 46.0736 31.6238 45.5808C31.8198 45.2784 32.0494 45.1272 32.3126 45.1272C32.3686 45.1272 32.433 45.1496 32.5058 45.1944C32.5842 45.2336 32.6234 45.2784 32.6234 45.3288C32.6234 45.368 32.5982 45.3876 32.5478 45.3876C32.503 45.3876 32.4694 45.3848 32.447 45.3792H32.3798C32.251 45.3792 32.139 45.4184 32.0438 45.4968C31.9542 45.5696 31.9094 45.648 31.9094 45.732C31.9094 45.8104 31.9178 45.8748 31.9346 45.9252L32.1362 46.5972C32.2146 46.8772 32.2538 47.1068 32.2538 47.286C32.405 47.2636 32.5226 47.216 32.6066 47.1432C32.6962 47.0704 32.797 46.95 32.909 46.782C32.9258 46.7596 32.9426 46.7484 32.9594 46.7484ZM31.9094 47.3952C31.915 47.3672 31.9178 47.3084 31.9178 47.2188C31.9178 47.1292 31.8758 46.9192 31.7918 46.5888C31.7134 46.2584 31.6742 46.0512 31.6742 45.9672C31.6742 45.8832 31.677 45.83 31.6826 45.8076C31.537 45.9588 31.299 46.362 30.9686 47.0172C31.2038 47.1516 31.3802 47.2468 31.4978 47.3028C31.6154 47.3532 31.7526 47.384 31.9094 47.3952ZM31.4558 47.8236C31.6742 47.8236 31.8226 47.7144 31.901 47.496C31.453 47.496 31.1114 47.4036 30.8762 47.2188C30.8874 47.3476 30.9546 47.482 31.0778 47.622C31.201 47.7564 31.327 47.8236 31.4558 47.8236ZM35.0166 45.4716L34.941 46.11C34.941 46.4516 34.9914 46.796 35.0922 47.1432C35.2378 47.6248 35.4366 47.8656 35.6886 47.8656C35.7334 47.8656 35.7894 47.8516 35.8566 47.8236C35.9238 47.7956 35.963 47.7816 35.9742 47.7816C36.019 47.7816 36.0414 47.8068 36.0414 47.8572C36.0414 47.9076 35.9826 47.9552 35.865 48C35.753 48.0448 35.6662 48.0672 35.6046 48.0672C35.319 48.0672 35.0698 47.8516 34.857 47.4204C34.6498 46.9892 34.5462 46.5972 34.5462 46.2444C34.5462 46.1772 34.549 46.1296 34.5546 46.1016C34.3698 46.3704 33.9694 46.796 33.3534 47.3784C33.2806 47.6248 33.219 47.8712 33.1686 48.1176C33.1294 48.2688 33.037 48.3444 32.8914 48.3444C32.8242 48.3444 32.7962 48.322 32.8074 48.2772C32.7906 48.2324 32.7514 48.1596 32.6898 48.0588C32.6226 47.9636 32.589 47.8992 32.589 47.8656C32.589 47.832 32.6086 47.8124 32.6478 47.8068C32.7486 47.7452 32.8746 47.6472 33.0258 47.5128C33.3674 46.516 33.9526 45.102 34.7814 43.2708C34.7926 43.2484 34.8094 43.2064 34.8318 43.1448C34.871 43.0384 34.927 42.9208 34.9998 42.792C35.0614 42.6632 35.2098 42.5988 35.445 42.5988C35.529 42.5988 35.571 42.6184 35.571 42.6576C35.571 42.6576 35.403 42.974 35.067 43.6068C34.283 45.0908 33.7426 46.2584 33.4458 47.1096C34.101 46.4544 34.535 45.914 34.7478 45.4884C34.7814 45.4324 34.8346 45.4044 34.9074 45.4044C34.9802 45.4044 35.0166 45.4268 35.0166 45.4716ZM32.9418 47.7648L32.7654 47.9076C32.7934 47.9468 32.8214 48.0056 32.8494 48.084C32.8942 47.916 32.925 47.8096 32.9418 47.7648Z" fill="white"/>
<path d="M7.20109 26.9419L7.48444 26.7723C7.50897 26.7588 7.5251 26.7591 7.53281 26.7731C7.53474 26.7766 7.52887 26.7867 7.5152 26.8033C7.39359 26.8976 7.27671 26.9756 7.16456 27.0373C7.05241 27.099 6.98232 27.1376 6.95428 27.153C6.96392 27.1705 6.9726 27.1863 6.98031 27.2003C7.1172 27.4491 7.2257 27.7044 7.30581 27.9663C7.76513 28.0377 8.06612 28.2031 8.2088 28.4625C8.26471 28.5641 8.29258 28.6811 8.29242 28.8136C8.28647 28.9356 8.25345 29.0291 8.19335 29.0941C8.13517 29.1626 8.09207 29.2046 8.06403 29.22C8.0395 29.2335 8.0253 29.2368 8.02145 29.2298C8.01181 29.2122 8.03196 29.1783 8.0819 29.128C8.13376 29.0812 8.1582 28.997 8.15521 28.8754C8.15415 28.7573 8.13144 28.6579 8.0871 28.5773C7.96756 28.36 7.73404 28.226 7.38653 28.1752C7.53938 28.6024 7.56947 29.0264 7.47681 29.4472C7.36961 29.9079 7.12325 30.2443 6.73773 30.4564C6.4889 30.5933 6.22166 30.6718 5.93602 30.692C5.52525 30.7171 5.15127 30.6307 4.81409 30.4327C4.47304 30.2277 4.20034 29.9394 3.99597 29.5679C3.79353 29.1999 3.66135 28.7522 3.59944 28.2247C3.17236 28.1538 2.83929 27.901 2.60022 27.4665C2.5713 27.4139 2.53414 27.3339 2.48874 27.2265C2.43984 27.121 2.43211 26.97 2.46556 26.7736C2.50094 26.5806 2.58347 26.4485 2.71314 26.3771C2.84282 26.3058 2.97565 26.3149 3.11165 26.4044C3.22171 26.4717 3.32301 26.5895 3.41556 26.7577C3.51003 26.9294 3.58182 27.2301 3.63093 27.6596C4.07308 27.7496 4.59451 27.739 5.19523 27.6276C5.79946 27.5144 6.34428 27.347 6.82968 27.1257C6.42253 26.4685 5.94495 26.0693 5.39695 25.9279C5.19086 25.8769 5.01071 25.8939 4.85651 25.9787C4.59015 26.1252 4.47022 26.3761 4.49672 26.7313C4.49953 26.8028 4.5203 26.8987 4.55904 27.0189C4.56167 27.0403 4.55948 27.0529 4.55247 27.0567C4.53495 27.0664 4.51944 27.0589 4.50595 27.0344L4.50542 27.021C4.40919 26.8046 4.38822 26.5673 4.44253 26.3092C4.49875 26.0545 4.61449 25.879 4.78972 25.7826C4.96846 25.6843 5.15465 25.6617 5.3483 25.715C5.94519 25.8706 6.46799 26.3271 6.91668 27.0846C7.04671 27.0222 7.14151 26.9747 7.20109 26.9419ZM6.52032 30.1857C6.86728 29.9948 7.11461 29.7058 7.2623 29.3187C7.40999 28.9316 7.42091 28.5489 7.29505 28.1708C7.03481 28.1541 6.6406 28.1678 6.11242 28.2119C5.58425 28.2559 5.11731 28.2868 4.71163 28.3045C4.31137 28.3239 3.97306 28.3022 3.6967 28.2397C3.74406 28.7158 3.86318 29.1274 4.05405 29.4744C4.30855 29.937 4.66669 30.2353 5.12847 30.3693C5.59375 30.5014 6.0577 30.4402 6.52032 30.1857ZM6.93326 27.3015L6.87253 27.1911C6.39291 27.423 5.84845 27.5993 5.23914 27.7199C4.63334 27.8386 4.10042 27.8533 3.6404 27.7639L3.67039 27.9803C3.87841 28.0347 4.18237 28.0479 4.58227 28.0196C4.76102 28.0126 5.0181 27.9944 5.35351 27.9651C5.69243 27.9339 5.88423 27.9174 5.92892 27.9156C6.53946 27.872 6.96872 27.8846 7.21669 27.9536C7.13957 27.7222 7.04509 27.5048 6.93326 27.3015ZM2.70507 27.1965C2.66844 27.1299 2.66239 27.0899 2.68693 27.0764C2.70445 27.0667 2.7296 27.0917 2.76237 27.1513C2.89541 27.3931 3.16065 27.5599 3.55811 27.6517C3.52601 27.2448 3.45018 26.9327 3.33065 26.7154C3.27666 26.6173 3.19814 26.5326 3.0951 26.4615C2.99748 26.3919 2.88909 26.3899 2.76993 26.4555C2.65428 26.5191 2.58927 26.6416 2.57492 26.823C2.55706 27.0063 2.58959 27.1733 2.67249 27.324C2.75732 27.4782 2.88921 27.6225 3.06814 27.7569C3.24708 27.8913 3.41558 27.9652 3.57365 27.9787L3.5647 27.7508C3.142 27.6546 2.85546 27.4699 2.70507 27.1965ZM6.55068 32.8301L6.54016 32.8359C6.30446 32.8057 6.14612 32.7171 6.06514 32.5699C5.98416 32.4227 6.07335 32.2778 6.3327 32.1351C6.43784 32.0772 6.5916 32.0041 6.794 31.9155C6.4684 31.9212 6.10257 31.8371 5.69652 31.6633C5.65463 31.6453 5.5763 31.6107 5.46151 31.5598C5.43785 31.5499 5.41349 31.5223 5.38842 31.4767C5.36529 31.4346 5.36423 31.4078 5.38526 31.3963C5.51143 31.3269 5.71576 31.2875 5.99825 31.2782C6.28267 31.2724 6.4799 31.2575 6.58995 31.2334C6.70351 31.2075 6.8479 31.1463 7.02314 31.0499C6.95935 31.0667 6.80023 31.0721 6.54578 31.066C6.16234 31.0578 5.96484 31.0432 5.95327 31.0222C5.94171 31.0011 5.94293 30.9868 5.95695 30.979L6.31182 30.9893C6.69876 30.9955 7.0056 30.9682 7.23236 30.9074C7.33505 30.8783 7.40375 30.8953 7.43845 30.9584C7.47316 31.0215 7.4099 31.0974 7.24869 31.1861C7.09098 31.2728 6.84337 31.3497 6.50585 31.4167L5.69572 31.5747C6.08197 31.7457 6.49205 31.8397 6.92595 31.8567C7.19056 31.7567 7.37781 31.7154 7.48768 31.7325C7.52379 31.7401 7.55726 31.7719 7.58811 31.8279C7.62088 31.8875 7.618 31.9279 7.57945 31.9491C7.4743 32.007 7.35961 32.0267 7.23536 32.0083C6.93009 32.0758 6.65304 32.178 6.40421 32.3149C6.23599 32.4074 6.1808 32.5063 6.23864 32.6114C6.26756 32.664 6.31926 32.704 6.39374 32.7315C6.47015 32.7625 6.51922 32.7812 6.54095 32.7875C6.56461 32.7973 6.57547 32.8005 6.57354 32.797C6.57933 32.8075 6.5717 32.8185 6.55068 32.8301ZM7.40924 34.3908L7.39873 34.3965C7.16303 34.3664 7.00468 34.2778 6.92371 34.1306C6.84273 33.9834 6.93192 33.8384 7.19126 33.6958C7.2964 33.6379 7.45017 33.5647 7.65257 33.4762C7.32697 33.4819 6.96114 33.3978 6.55508 33.224C6.5132 33.2059 6.43486 33.1714 6.32007 33.1204C6.29641 33.1106 6.27205 33.0829 6.24699 33.0374C6.22385 32.9953 6.2228 32.9685 6.24383 32.9569C6.37 32.8875 6.57433 32.8482 6.85682 32.8389C7.14124 32.833 7.33847 32.8181 7.44852 32.7941C7.56208 32.7682 7.70647 32.707 7.8817 32.6106C7.81792 32.6274 7.6588 32.6328 7.40434 32.6267C7.02091 32.6185 6.82341 32.6039 6.81184 32.5828C6.80027 32.5618 6.8015 32.5474 6.81552 32.5397L7.17039 32.5499C7.55732 32.5562 7.86417 32.5289 8.09093 32.4681C8.19362 32.439 8.26232 32.456 8.29702 32.5191C8.33173 32.5822 8.26847 32.658 8.10726 32.7467C7.94954 32.8335 7.70193 32.9104 7.36442 32.9773L6.55429 33.1354C6.94054 33.3064 7.35062 33.4004 7.78452 33.4173C8.04913 33.3174 8.23637 33.276 8.34625 33.2932C8.38235 33.3007 8.41583 33.3325 8.44668 33.3886C8.47945 33.4482 8.47656 33.4886 8.43801 33.5098C8.33287 33.5676 8.21818 33.5874 8.09393 33.569C7.78866 33.6365 7.51161 33.7387 7.26278 33.8756C7.09455 33.9681 7.03936 34.0669 7.0972 34.1721C7.12612 34.2247 7.17782 34.2647 7.2523 34.2922C7.32871 34.3232 7.37778 34.3419 7.39951 34.3482C7.42317 34.358 7.43404 34.3611 7.43211 34.3576C7.43789 34.3681 7.43027 34.3792 7.40924 34.3908ZM9.97661 35.0867C9.98923 35.1345 9.96576 35.1749 9.90618 35.2076C9.8501 35.2385 9.7234 35.2488 9.52608 35.2387C9.33068 35.232 9.20196 35.2138 9.13992 35.184C8.96661 35.1926 8.7621 35.2275 8.52641 35.2887C8.29614 35.3515 8.10216 35.4262 7.94445 35.513C7.78674 35.5998 7.73294 35.6887 7.78307 35.7798C7.84284 35.8885 8.00784 35.9643 8.27807 36.0074C8.36114 36.0256 8.55513 36.0422 8.86006 36.057C8.8888 36.0595 8.90606 36.066 8.91184 36.0765C8.91763 36.087 8.91526 36.0952 8.90475 36.1009L8.86742 36.1078C8.19677 36.1252 7.79685 36.0165 7.66767 35.7817C7.55585 35.5784 7.64713 35.3958 7.94153 35.2338C8.08522 35.1548 8.31636 35.0687 8.63494 34.9756C8.30583 34.9832 8.03973 34.9767 7.83662 34.956C7.47316 34.9094 7.24709 34.8055 7.1584 34.6443C7.06971 34.4831 7.13401 34.3427 7.3513 34.2232C7.68424 34.04 8.13558 34.0223 8.70531 34.17C9.27504 34.3176 9.67269 34.5508 9.89826 34.8696C10.6663 34.7803 11.2775 34.7294 11.7317 34.7169C11.8451 34.7322 11.9375 34.8046 12.0088 34.9343C12.0358 34.9834 12.037 35.0147 12.0125 35.0282C11.3469 35.0382 10.6683 35.0577 9.97661 35.0867ZM7.52348 34.2997C7.36928 34.3845 7.3182 34.4742 7.37026 34.5688C7.511 34.8247 7.93449 34.9181 8.64071 34.8492C8.58112 34.7907 8.54362 34.7474 8.52819 34.7194C8.5147 34.6948 8.51496 34.6787 8.52898 34.671C8.5465 34.6614 8.5748 34.6755 8.61389 34.7133C8.6584 34.7527 8.72447 34.794 8.8121 34.8371C8.91356 34.8224 8.9989 34.8074 9.06812 34.7921C9.13927 34.7804 9.1787 34.7815 9.18641 34.7955C9.19991 34.8201 9.19089 34.841 9.15934 34.8584C9.1278 34.8757 9.0613 34.8917 8.95983 34.9065L9.08023 34.9635L9.74843 34.8835C9.54232 34.65 9.18393 34.4591 8.67325 34.3109C8.16258 34.1626 7.77932 34.1589 7.52348 34.2997ZM11.0498 37.0376C11.0624 37.0854 11.039 37.1257 10.9794 37.1585C10.9233 37.1893 10.7966 37.1997 10.5993 37.1895C10.4039 37.1829 10.2752 37.1647 10.2131 37.1349C10.0398 37.1435 9.83531 37.1784 9.59962 37.2396C9.36935 37.3023 9.17537 37.3771 9.01765 37.4639C8.85994 37.5506 8.80615 37.6396 8.85628 37.7307C8.91605 37.8393 9.08105 37.9152 9.35128 37.9583C9.43434 37.9765 9.62834 37.993 9.93327 38.0079C9.96201 38.0103 9.97927 38.0168 9.98505 38.0273C9.99084 38.0379 9.98847 38.046 9.97796 38.0518L9.94063 38.0586C9.26998 38.076 8.87006 37.9673 8.74088 37.7325C8.62906 37.5293 8.72034 37.3466 9.01474 37.1847C9.15843 37.1056 9.38957 37.0196 9.70815 36.9265C9.37904 36.9341 9.11294 36.9275 8.90983 36.9069C8.54637 36.8603 8.32029 36.7564 8.23161 36.5952C8.14292 36.4339 8.20722 36.2936 8.42451 36.174C8.75745 35.9909 9.20879 35.9731 9.77852 36.1208C10.3482 36.2685 10.7459 36.5017 10.9715 36.8204C11.7395 36.7312 12.3507 36.6803 12.8049 36.6678C12.9183 36.683 13.0107 36.7555 13.082 36.8852C13.109 36.9342 13.1102 36.9655 13.0857 36.979C12.4201 36.9891 11.7415 37.0086 11.0498 37.0376ZM8.59669 36.2505C8.44249 36.3353 8.39141 36.4251 8.44347 36.5197C8.58421 36.7755 9.0077 36.869 9.71392 36.8C9.65433 36.7415 9.61683 36.6982 9.6014 36.6702C9.58791 36.6457 9.58817 36.6296 9.60219 36.6218C9.61971 36.6122 9.64801 36.6263 9.68709 36.6642C9.73161 36.7036 9.79768 36.7448 9.88531 36.7879C9.98677 36.7732 10.0721 36.7582 10.1413 36.743C10.2125 36.7312 10.2519 36.7324 10.2596 36.7464C10.2731 36.7709 10.2641 36.7918 10.2326 36.8092C10.201 36.8266 10.1345 36.8426 10.033 36.8573L10.1534 36.9144L10.8216 36.8344C10.6155 36.6008 10.2571 36.4099 9.74646 36.2617C9.23579 36.1135 8.85253 36.1098 8.59669 36.2505ZM10.4142 39.8531L10.4037 39.8589C10.168 39.8288 10.0097 39.7401 9.92869 39.5929C9.84772 39.4457 9.9369 39.3008 10.1962 39.1581C10.3014 39.1003 10.4552 39.0271 10.6576 38.9386C10.332 38.9442 9.96613 38.8602 9.56007 38.6863C9.51819 38.6683 9.43985 38.6338 9.32506 38.5828C9.3014 38.573 9.27704 38.5453 9.25197 38.4997C9.22884 38.4577 9.22778 38.4309 9.24881 38.4193C9.37498 38.3499 9.57931 38.3105 9.8618 38.3012C10.1462 38.2954 10.3435 38.2805 10.4535 38.2565C10.5671 38.2305 10.7115 38.1694 10.8867 38.073C10.8229 38.0898 10.6638 38.0951 10.4093 38.089C10.0259 38.0808 9.8284 38.0662 9.81683 38.0452C9.80526 38.0242 9.80648 38.0098 9.8205 38.0021L10.1754 38.0123C10.5623 38.0186 10.8692 37.9913 11.0959 37.9305C11.1986 37.9014 11.2673 37.9184 11.302 37.9814C11.3367 38.0445 11.2735 38.1204 11.1122 38.2091C10.9545 38.2959 10.7069 38.3727 10.3694 38.4397L9.55927 38.5978C9.94553 38.7688 10.3556 38.8627 10.7895 38.8797C11.0541 38.7798 11.2414 38.7384 11.3512 38.7556C11.3873 38.7631 11.4208 38.7949 11.4517 38.851C11.4844 38.9106 11.4815 38.951 11.443 38.9722C11.3379 39.03 11.2232 39.0497 11.0989 39.0313C10.7936 39.0988 10.5166 39.201 10.2678 39.3379C10.0995 39.4305 10.0443 39.5293 10.1022 39.6345C10.1311 39.687 10.1828 39.7271 10.2573 39.7546C10.3337 39.7856 10.3828 39.8042 10.4045 39.8105C10.4282 39.8204 10.439 39.8235 10.4371 39.82C10.4429 39.8305 10.4353 39.8416 10.4142 39.8531ZM11.7089 40.6255C11.5764 40.8993 11.4366 41.0766 11.2894 41.1576C11.1457 41.2367 11.0033 41.2351 10.8622 41.1529C10.7231 41.0743 10.6217 40.9771 10.5581 40.8614C10.4964 40.7493 10.4536 40.6176 10.4297 40.4664C10.4094 40.3132 10.4325 40.2183 10.4991 40.1817L10.5178 40.1783C10.5123 40.1767 10.509 40.1831 10.5078 40.1975C10.5073 40.2297 10.5093 40.3039 10.5138 40.4201C10.5203 40.5398 10.5487 40.6452 10.5988 40.7363C10.6508 40.8309 10.7261 40.9014 10.8246 40.9476C10.925 40.9974 11.019 40.9982 11.1067 40.95C11.3345 40.8247 11.5378 40.5096 11.7167 40.0049C10.5771 40.116 9.84247 40.1914 9.51284 40.2312C9.17778 40.2694 8.90388 40.3151 8.69114 40.3682C8.47297 40.4198 8.26049 40.5024 8.05372 40.6162C7.7418 40.7878 7.64175 40.9752 7.75358 41.1785C7.82684 41.3116 7.97336 41.441 8.19312 41.5667C8.11076 41.5663 8.01884 41.5279 7.91737 41.4513C7.81432 41.3802 7.74448 41.3113 7.70785 41.2447C7.6153 41.0765 7.59995 40.8909 7.66179 40.688C7.7182 40.4835 7.82701 40.3369 7.98823 40.2482C8.14944 40.1595 8.33248 40.1022 8.53733 40.0762C8.74026 40.0467 9.00067 40.0222 9.31856 40.0025C9.63645 39.9829 10.4531 39.9445 11.7685 39.8874C11.9393 39.5423 12.1211 39.3168 12.3138 39.2107C12.5066 39.1047 12.6454 39.1288 12.7302 39.283C12.8401 39.4828 12.7741 39.6492 12.5323 39.7822C12.4132 39.8477 12.2257 39.9052 11.9698 39.9547C11.8703 40.2468 11.7833 40.4704 11.7089 40.6255ZM11.9853 39.8708C12.1583 39.8533 12.3359 39.7944 12.5181 39.6941C12.7039 39.592 12.7611 39.476 12.6897 39.3463C12.657 39.2868 12.5775 39.2917 12.4513 39.3611C12.2551 39.4691 12.0997 39.639 11.9853 39.8708ZM12.202 43.1028L12.1915 43.1086C11.9558 43.0785 11.7974 42.9898 11.7164 42.8426C11.6355 42.6954 11.7246 42.5505 11.984 42.4078C12.0891 42.35 12.2429 42.2768 12.4453 42.1883C12.1197 42.1939 11.7539 42.1099 11.3478 41.936C11.3059 41.918 11.2276 41.8835 11.1128 41.8325C11.0891 41.8227 11.0648 41.795 11.0397 41.7494C11.0166 41.7074 11.0155 41.6806 11.0366 41.669C11.1627 41.5996 11.3671 41.5602 11.6495 41.5509C11.934 41.5451 12.1312 41.5302 12.2412 41.5062C12.3548 41.4802 12.4992 41.4191 12.6744 41.3227C12.6106 41.3395 12.4515 41.3448 12.1971 41.3387C11.8136 41.3305 11.6161 41.3159 11.6046 41.2949C11.593 41.2739 11.5942 41.2595 11.6082 41.2518L11.9631 41.262C12.3501 41.2683 12.6569 41.241 12.8837 41.1802C12.9863 41.1511 13.055 41.1681 13.0897 41.2311C13.1245 41.2942 13.0612 41.3701 12.9 41.4588C12.7423 41.5456 12.4947 41.6224 12.1571 41.6894L11.347 41.8475C11.7333 42.0185 12.1433 42.1124 12.5772 42.1294C12.8419 42.0295 13.0291 41.9881 13.139 42.0053C13.1751 42.0128 13.2086 42.0446 13.2394 42.1007C13.2722 42.1603 13.2693 42.2007 13.2307 42.2219C13.1256 42.2797 13.0109 42.2994 12.8867 42.281C12.5814 42.3485 12.3043 42.4507 12.0555 42.5876C11.8873 42.6802 11.8321 42.779 11.8899 42.8842C11.9188 42.9367 11.9705 42.9768 12.045 43.0043C12.1214 43.0353 12.1705 43.0539 12.1922 43.0602C12.2159 43.0701 12.2268 43.0732 12.2248 43.0697C12.2306 43.0802 12.223 43.0913 12.202 43.1028ZM14.7693 43.7988C14.782 43.8466 14.7585 43.8869 14.6989 43.9197C14.6428 43.9505 14.5161 43.9609 14.3188 43.9508C14.1234 43.9441 13.9947 43.9259 13.9326 43.8961C13.7593 43.9047 13.5548 43.9396 13.3191 44.0008C13.0889 44.0636 12.8949 44.1383 12.7372 44.2251C12.5795 44.3118 12.5257 44.4008 12.5758 44.4919C12.6356 44.6005 12.8006 44.6764 13.0708 44.7195C13.1539 44.7377 13.3479 44.7542 13.6528 44.7691C13.6815 44.7716 13.6988 44.778 13.7046 44.7886C13.7104 44.7991 13.708 44.8072 13.6975 44.813L13.6601 44.8198C12.9895 44.8373 12.5896 44.7286 12.4604 44.4937C12.3486 44.2905 12.4399 44.1079 12.7343 43.9459C12.8779 43.8669 13.1091 43.7808 13.4277 43.6877C13.0986 43.6953 12.8325 43.6887 12.6293 43.6681C12.2659 43.6215 12.0398 43.5176 11.9511 43.3564C11.8624 43.1952 11.9267 43.0548 12.144 42.9353C12.477 42.7521 12.9283 42.7343 13.498 42.882C14.0678 43.0297 14.4654 43.2629 14.691 43.5817C15.4591 43.4924 16.0702 43.4415 16.5245 43.429C16.6378 43.4443 16.7302 43.5167 16.8015 43.6464C16.8285 43.6954 16.8298 43.7267 16.8052 43.7402C16.1396 43.7503 15.461 43.7698 14.7693 43.7988ZM12.3162 43.0117C12.162 43.0966 12.1109 43.1863 12.163 43.2809C12.3037 43.5368 12.7272 43.6302 13.4334 43.5613C13.3738 43.5027 13.3363 43.4595 13.3209 43.4314C13.3074 43.4069 13.3077 43.3908 13.3217 43.3831C13.3392 43.3734 13.3675 43.3875 13.4066 43.4254C13.4511 43.4648 13.5172 43.5061 13.6048 43.5492C13.7063 43.5344 13.7916 43.5194 13.8608 43.5042C13.932 43.4924 13.9714 43.4936 13.9791 43.5076C13.9926 43.5321 13.9836 43.5531 13.9521 43.5704C13.9205 43.5878 13.854 43.6038 13.7526 43.6185L13.873 43.6756L14.5412 43.5956C14.335 43.362 13.9767 43.1711 13.466 43.0229C12.9553 42.8747 12.5721 42.871 12.3162 43.0117ZM14.1841 45.7101C14.188 45.7171 14.1864 45.7225 14.1794 45.7264C14.1198 45.7592 13.9354 45.7351 13.6261 45.6542C13.387 45.5848 13.2453 45.5098 13.201 45.4292C13.1027 45.2504 13.1429 45.1119 13.3216 45.0136C13.4548 44.9403 13.6423 44.8828 13.8841 44.8411L13.6849 44.8274C13.5827 44.8243 13.5268 44.814 13.5172 44.7964C13.5133 44.7894 13.5201 44.7811 13.5377 44.7715C13.5587 44.7599 13.6187 44.7611 13.7177 44.7751C13.8167 44.7891 14.0028 44.7872 14.276 44.7693C14.3651 44.7568 14.4686 44.7501 14.5867 44.749C14.6279 44.7492 14.6659 44.7808 14.7006 44.8439C14.7372 44.9105 14.738 44.9534 14.703 44.9727C14.6679 44.992 14.6057 45.0034 14.5163 45.0069C14.427 45.0104 14.3703 45.0028 14.3462 44.984C13.8815 45.0023 13.5633 45.0587 13.3915 45.1532C13.2759 45.2168 13.2393 45.2871 13.2817 45.3642C13.3511 45.4904 13.5184 45.5787 13.7835 45.6292C13.8918 45.6518 13.9568 45.6662 13.9786 45.6725C14.0038 45.6769 14.029 45.6813 14.0543 45.6857C14.0795 45.69 14.1003 45.6946 14.1166 45.6993C14.1437 45.7072 14.1663 45.7108 14.1841 45.7101ZM15.5244 44.7605C15.6018 44.8183 15.6454 44.856 15.655 44.8735C15.6647 44.891 15.6642 44.9027 15.6537 44.9085C15.6467 44.9123 15.5755 44.899 15.44 44.8685L15.2337 44.8793C15.1462 44.8864 15.089 44.8653 15.062 44.8163C15.0235 44.7462 15.041 44.6909 15.1146 44.6504C15.1496 44.6311 15.206 44.6298 15.2836 44.6464C15.3667 44.6646 15.4469 44.7027 15.5244 44.7605Z" fill="white"/>
<path d="M39.8453 41.3648C40.2558 41.6882 40.6169 42.1272 40.9286 42.6818C41.0541 42.8995 41.3036 43.4198 41.677 44.2428C41.6794 44.2625 41.6762 44.2778 41.6676 44.2888C41.6444 44.3181 41.6219 44.3241 41.5999 44.3068C41.5816 44.2924 41.4401 44.0799 41.1754 43.6693C40.9143 43.2616 40.6903 42.9277 40.5032 42.6674C40.1874 42.2463 39.8902 41.926 39.6117 41.7065C39.1058 41.308 38.6513 41.1459 38.2481 41.2203C38.5173 41.3612 38.8004 41.5486 39.0973 41.7825C39.6215 42.1955 40.1256 42.7056 40.6097 43.3127C41.0967 43.9162 41.4461 44.4945 41.6579 45.0476C41.6675 45.073 41.6695 45.0894 41.6637 45.0967C41.6579 45.1041 41.6459 45.1005 41.6276 45.0861L41.6111 45.0731C41.0002 43.7898 40.1542 42.7221 39.0728 41.8701C38.7172 41.59 38.3972 41.3854 38.1128 41.2563C37.9405 41.3166 37.7922 41.4256 37.668 41.5832C37.3966 41.9278 37.3082 42.3453 37.4029 42.8358C37.4969 43.3198 37.718 43.699 38.0662 43.9734C38.2642 44.1293 38.4418 44.198 38.5991 44.1793C38.7593 44.157 38.8957 44.0743 39.0083 43.9314C39.1238 43.7848 39.1895 43.5959 39.2053 43.3647C39.221 43.1335 39.1971 42.9038 39.1335 42.6754C39.1275 42.6529 39.1273 42.6379 39.1331 42.6306C39.1389 42.6232 39.1473 42.6239 39.1583 42.6326C39.1693 42.6412 39.1792 42.655 39.1881 42.6739C39.2654 42.8774 39.2939 43.1316 39.2736 43.4364C39.2496 43.7383 39.1841 43.957 39.0773 44.0927C38.9704 44.2283 38.8545 44.3152 38.7294 44.3533C38.5891 44.4031 38.4616 44.4066 38.3468 44.3637C38.2292 44.3245 38.0897 44.2414 37.9284 44.1143C37.7672 43.9872 37.6222 43.8017 37.4936 43.5578C37.325 43.2289 37.2624 42.8558 37.306 42.4386C37.3459 42.0185 37.4828 41.66 37.7167 41.3631C37.7716 41.2934 37.8319 41.2281 37.8978 41.1671C37.5347 41.0474 37.2568 41.0721 37.0642 41.2411C37.0424 41.2537 37.0261 41.2556 37.0151 41.247C36.9784 41.2181 36.9803 41.178 37.0207 41.1267C37.1882 40.914 37.5096 40.9058 37.9848 41.102C38.514 40.7169 39.1341 40.8045 39.8453 41.3648ZM41.2557 37.4142C41.2961 37.446 41.3625 37.5162 41.4552 37.6249C41.547 37.7269 41.5861 37.7904 41.5725 37.8153C41.5659 37.8161 41.5571 37.8121 41.5462 37.8035C41.5352 37.7948 41.5043 37.7586 41.4535 37.6948C41.402 37.6245 41.356 37.5735 41.3157 37.5417C41.0701 37.3482 40.8477 37.3779 40.6484 37.6308C40.5704 37.7298 40.5113 37.8614 40.471 38.0257C40.2907 38.7749 40.4422 39.8418 40.9255 41.2267C40.9821 41.3961 41.1593 41.8951 41.457 42.7237C41.7802 43.6557 41.8855 44.1932 41.7729 44.3361C41.7642 44.3471 41.7507 44.3454 41.7324 44.331C41.714 44.3165 41.707 44.2991 41.7112 44.2786C41.7212 44.2509 41.7316 44.1848 41.7425 44.0805C41.7415 43.848 41.5967 43.3418 41.3082 42.562C40.8801 41.4464 40.602 40.6569 40.4739 40.1936C40.205 39.2153 40.1469 38.4031 40.2995 37.757C40.3248 37.6343 40.3808 37.518 40.4675 37.4081C40.5541 37.2981 40.6725 37.2458 40.8227 37.2513C40.9721 37.2502 41.1164 37.3045 41.2557 37.4142ZM42.91 39.7372C42.9128 39.7336 42.9198 39.736 42.9308 39.7447C42.9418 39.7534 42.9614 39.7926 42.9896 39.8623C43.0833 40.1204 43.1238 40.4196 43.111 40.7601C43.0946 41.0977 43.0113 41.3618 42.8611 41.5524C42.6561 41.8126 42.3849 41.8099 42.0477 41.5442C41.934 41.4547 41.8232 41.3465 41.7151 41.2198C41.6598 41.2297 41.5964 41.2272 41.5248 41.2125C41.5314 41.2117 41.5441 41.2068 41.563 41.198C41.5782 41.1862 41.5938 41.1777 41.6098 41.1725C41.625 41.1607 41.6402 41.1489 41.6555 41.1371C41.5047 40.959 41.4077 40.7013 41.3644 40.3642C41.3211 40.0271 41.3687 39.7705 41.5073 39.5946C41.5391 39.5543 41.5605 39.5384 41.5715 39.5471C41.5788 39.5529 41.5769 39.593 41.5658 39.6674C41.5323 39.8608 41.5463 40.0768 41.6078 40.3154C41.6636 40.5613 41.7468 40.7724 41.8574 40.9487L41.8771 40.9464C42.0157 40.7704 42.0758 40.5207 42.0574 40.1972C42.0389 39.8738 41.9417 39.6427 41.7658 39.5041C41.7145 39.4637 41.6553 39.4408 41.5882 39.4355C41.5203 39.4236 41.4618 39.4488 41.4127 39.5111C41.3636 39.5734 41.3308 39.6753 41.3144 39.8168C41.2972 39.9518 41.2842 40.0248 41.2756 40.0358C41.2698 40.0431 41.2651 40.0453 41.2614 40.0424C41.2174 40.0078 41.2178 39.913 41.2626 39.7582C41.3102 39.5997 41.3629 39.4838 41.4207 39.4105C41.4814 39.3335 41.5572 39.2863 41.6481 39.2688C41.7391 39.2514 41.8268 39.2759 41.9111 39.3423C42.1053 39.4954 42.1933 39.7608 42.175 40.1384C42.1595 40.5124 42.0772 40.813 41.928 41.04C41.9929 41.1386 42.0657 41.2197 42.1463 41.2833C42.4506 41.523 42.6893 41.5329 42.8626 41.3129C42.9955 41.1443 43.0623 40.9237 43.0632 40.6511C43.0605 40.3756 43.0134 40.1187 42.9219 39.8803C42.8966 39.8069 42.8926 39.7592 42.91 39.7372ZM43.5907 40.4793L42.4423 39.0753C42.3794 39.0496 42.2486 39.0119 42.05 38.9624C42.0244 38.9421 42.0251 38.8922 42.0522 38.8126C42.127 38.5744 42.1846 38.4297 42.225 38.3784C42.2683 38.3234 42.3065 38.3089 42.3395 38.3349C42.5698 38.7362 42.7308 39.0145 42.8223 39.1698C42.8333 39.1785 42.8443 39.1871 42.8553 39.1958C42.9689 39.2853 43.0128 39.3466 42.9868 39.3796C42.981 39.3869 42.9712 39.3881 42.9573 39.3831C43.1276 39.642 43.2543 39.828 43.3375 39.9411C43.1954 39.5559 43.0911 39.1944 43.0244 38.8567C42.9221 38.3305 42.9417 37.9776 43.0832 37.798C43.1497 37.7137 43.2159 37.6976 43.2819 37.7495C43.3075 37.7698 43.627 38.1938 44.2402 39.0215C44.2501 38.6847 44.2115 38.3869 44.1243 38.1281C44.1167 38.0925 44.1158 38.071 44.1216 38.0636C44.1303 38.0526 44.1401 38.0515 44.1511 38.0601C44.1621 38.0688 44.1724 38.0858 44.1821 38.1113C44.3409 38.4978 44.4137 38.873 44.4004 39.2368C44.4079 39.2725 44.4001 39.3049 44.377 39.3343C44.3568 39.3599 44.3302 39.3598 44.2972 39.3338C44.2642 39.3078 44.1569 39.1876 43.9753 38.9732C43.7937 38.7588 43.6533 38.5977 43.5541 38.4898C43.4578 38.3783 43.3264 38.251 43.1599 38.1079C43.1148 38.316 43.1266 38.6253 43.1952 39.0358C43.2638 39.4464 43.3371 39.7418 43.415 39.9219C43.4957 40.0984 43.5714 40.2323 43.6421 40.3237C43.7119 40.4084 43.7339 40.4673 43.7079 40.5003C43.6848 40.5296 43.6494 40.5255 43.6017 40.4879L43.5907 40.4793ZM42.1773 38.7329C42.1776 38.7628 42.1684 38.8121 42.15 38.8807L42.3198 38.9254L42.1773 38.7329ZM46.1779 37.4105C46.2357 37.3372 46.2606 37.2529 46.2526 37.1574C46.2446 37.062 46.2435 37.0106 46.2492 37.0033C46.2579 36.9923 46.2677 36.9912 46.2787 36.9998C46.2897 37.0085 46.3033 37.0251 46.3195 37.0498C46.3932 37.2504 46.3679 37.4295 46.2437 37.5871C46.1195 37.7448 45.89 37.8551 45.5553 37.918C45.227 37.9802 44.9123 38.0026 44.6112 37.9852L44.7875 38.4627C44.8574 38.6604 44.8937 38.8256 44.8961 38.9582C44.9573 39.054 44.9547 39.144 44.8883 39.2283C44.8565 39.2687 44.8259 39.2773 44.7966 39.2542C44.694 39.1733 44.4533 38.8114 44.0747 38.1685L44.0034 38.2816C43.986 38.3036 43.9737 38.3117 43.9664 38.3059C43.915 38.2655 43.9309 38.1888 44.0139 38.076C43.6815 37.4874 43.4644 37.0994 43.3624 36.9121C43.3212 37.153 43.2717 37.31 43.2139 37.3833C43.2024 37.398 43.1911 37.401 43.1801 37.3923C43.1434 37.3635 43.1343 37.3147 43.1528 37.246C43.1549 37.2358 43.1609 37.2168 43.1709 37.1891C43.2105 37.0182 43.2326 36.8544 43.2373 36.6977L42.3412 34.9847C42.2887 34.8779 42.3144 34.7586 42.4183 34.6266C42.4732 34.557 42.5208 34.538 42.5611 34.5698C42.5758 34.5814 42.6123 34.6368 42.6706 34.7363C42.8764 35.0707 43.0761 35.5073 43.2696 36.0459C43.3102 36.2205 43.3524 36.3517 43.396 36.4396C43.459 36.5784 43.5331 36.7407 43.6183 36.9266C43.7064 37.1089 43.8713 37.4349 44.1132 37.9047C44.1013 37.7765 44.1054 37.6996 44.1257 37.6739C44.1459 37.6483 44.1848 37.6403 44.2425 37.6501C44.2703 37.577 44.2921 37.508 44.3076 37.443C44.2906 37.4118 44.2398 37.2915 44.1552 37.0823C44.0697 36.8664 44.0091 36.6493 43.9732 36.431C43.9147 36.1056 43.9302 35.8861 44.0197 35.7725C44.1092 35.6588 44.2768 35.6988 44.5224 35.8923C44.8266 36.132 44.7929 36.6461 44.4212 37.4345C44.4479 37.4912 44.4781 37.5773 44.5117 37.6929C44.8029 37.7381 45.0963 37.7465 45.392 37.7181C45.7831 37.6817 46.0451 37.5791 46.1779 37.4105ZM44.2771 36.1357C44.1745 36.0548 44.1044 36.0382 44.0669 36.0859C44.0033 36.1665 44.0569 36.4642 44.2276 36.979L44.3668 37.3114C44.5599 36.7269 44.5301 36.335 44.2771 36.1357ZM44.5204 37.976C44.419 37.9615 44.3135 37.9408 44.204 37.9139L44.1618 37.9787C44.2748 38.1746 44.4887 38.4649 44.8035 38.8496C44.7535 38.5963 44.6591 38.3052 44.5204 37.976ZM46.851 34.8483C46.839 34.8032 46.8373 34.7752 46.846 34.7642C46.8547 34.7532 46.8681 34.7549 46.8865 34.7694C46.9011 34.7809 46.9119 34.8012 46.9186 34.8304C47.1499 35.5473 47.1948 35.9955 47.0532 36.1751C46.9753 36.2741 46.8702 36.3132 46.7382 36.2923C46.6053 36.2648 46.4821 36.2063 46.3684 36.1168C46.2511 36.0244 46.1318 35.9007 46.0104 35.7456C46.3416 36.3809 46.4105 36.8213 46.217 37.0669C46.0986 37.2172 45.9422 37.2158 45.7479 37.0627C45.4364 36.8172 45.2304 36.4113 45.13 35.845C45.0324 35.2751 45.1021 34.8398 45.3389 34.5393C45.4516 34.3963 45.5702 34.3739 45.6948 34.4721C45.8488 34.5934 45.9219 34.8173 45.9141 35.1439C46.0942 35.4582 46.3071 35.712 46.5527 35.9055C46.7947 36.0962 46.9517 36.1456 47.0239 36.054C47.1192 35.933 47.0616 35.5312 46.851 34.8483ZM45.7705 34.9416C45.736 34.8195 45.6785 34.7266 45.5978 34.6631C45.5172 34.5995 45.4466 34.6062 45.3859 34.6832C45.2415 34.8665 45.2338 35.2495 45.3627 35.8324C45.488 36.4123 45.6478 36.7788 45.8421 36.9319C45.9264 36.9983 46.0003 36.9912 46.0639 36.9106C46.2458 36.6797 46.1654 36.2539 45.8226 35.6333C45.7889 35.7137 45.7634 35.7649 45.7461 35.7869C45.7288 35.8089 45.7146 35.8156 45.7036 35.8069C45.6853 35.7925 45.6872 35.7524 45.7093 35.6866L45.7446 35.4382C45.6881 35.3817 45.6378 35.2797 45.5937 35.1321C45.5459 34.9816 45.5466 34.8752 45.5957 34.8128C45.613 34.7908 45.6363 34.7914 45.6657 34.8145C45.695 34.8376 45.7299 34.88 45.7705 34.9416ZM47.316 32.0413C47.3783 32.0904 47.2534 32.494 46.9412 33.2521C47.1302 33.6683 47.2542 33.9294 47.3133 34.0354C47.4655 34.3097 47.646 34.5292 47.855 34.6938C47.9759 34.7891 48.0682 34.7965 48.1317 34.7158C48.2097 34.6169 48.2426 34.4319 48.2304 34.1608L48.2109 33.7444C48.2195 33.7334 48.2294 33.7323 48.2404 33.7409C48.2514 33.7496 48.2635 33.7681 48.2769 33.7964C48.3186 33.9244 48.3396 34.1013 48.3398 34.3273C48.3364 34.5503 48.3029 34.7022 48.2394 34.7828C48.095 34.9661 47.911 34.9697 47.6874 34.7935C47.5261 34.6664 47.3581 34.4687 47.1833 34.2003C47.0518 34.1561 46.9189 34.1702 46.7846 34.2426C46.744 34.2641 46.6848 34.2977 46.6072 34.3434C46.5295 34.3892 46.4656 34.425 46.4156 34.4509C46.3655 34.4768 46.3129 34.4681 46.2579 34.4247C46.1993 34.3785 46.1847 34.3254 46.2141 34.2654L46.3311 34.117C46.4813 33.9264 46.6196 33.7056 46.746 33.4547L45.9797 31.9954C45.9339 31.9178 45.9486 31.8313 46.0237 31.736C46.1017 31.637 46.159 31.602 46.1956 31.6309C46.2066 31.6395 46.3094 31.8334 46.5039 32.2124C46.6976 32.5848 46.796 32.7841 46.7991 32.8104L46.8135 32.9732L46.8934 33.1431C46.9371 33.0349 47.0563 32.6951 47.251 32.1237C47.2726 32.0813 47.2862 32.0564 47.292 32.0491C47.3007 32.0381 47.3087 32.0355 47.316 32.0413ZM46.8091 33.5668C46.695 33.8096 46.5858 34.0236 46.4815 34.2088C46.7307 34.0962 46.9447 34.0658 47.1237 34.1177C47.0499 34.0001 46.9451 33.8165 46.8091 33.5668Z" fill="white"/>
<path d="M45.6692 26.8216L45.3377 26.9279C45.3069 26.9366 45.2887 26.9314 45.2833 26.9121C45.2811 26.9044 45.31 26.8817 45.37 26.8439C45.43 26.8062 45.5312 26.7672 45.6736 26.7269C45.816 26.6865 45.9147 26.6607 45.9697 26.6493C45.8953 26.5041 45.8407 26.3699 45.8058 26.2467C45.7078 25.9003 45.722 25.6053 45.8485 25.3616C45.9799 25.0917 46.2092 24.9104 46.5363 24.8178L46.5594 24.8112C46.6249 24.7927 46.6652 24.8104 46.6805 24.8643C46.6892 24.8951 46.6874 24.933 46.6752 24.978C46.5915 25.2844 46.5229 25.5636 46.4696 25.8157C46.4123 26.0688 46.3798 26.3212 46.3721 26.5728C46.9245 26.483 47.5158 26.4279 48.1461 26.4075C48.862 26.3961 49.4537 26.4303 49.9211 26.51C49.9162 26.4782 49.904 26.4276 49.8844 26.3583C49.7656 25.9388 49.5375 25.544 49.2 25.1739C48.8586 24.8049 48.4856 24.5592 48.081 24.4368L47.997 24.4044C47.9997 24.3995 48.0107 24.3943 48.03 24.3888C48.0492 24.3834 48.072 24.3832 48.0984 24.3882C48.5465 24.5025 48.9762 24.7799 49.3878 25.2205C49.7686 25.6407 50.0298 26.0864 50.1715 26.5577C50.6888 26.6815 50.9779 26.8512 51.0389 27.0667C51.0487 27.1013 51.042 27.1219 51.019 27.1285C50.9959 27.135 50.9791 27.1273 50.9687 27.1053L50.9146 27.0021C50.8029 26.8425 50.5612 26.7155 50.1895 26.6212C50.2901 27.0209 50.2692 27.3656 50.1267 27.6553C49.9842 27.9451 49.7013 28.1499 49.2779 28.2697C48.8507 28.3906 48.3555 28.352 47.7922 28.1539C47.2252 27.9568 46.7679 27.6705 46.4205 27.2949C46.4384 27.4021 46.4626 27.5096 46.4931 27.6174C46.5225 27.7213 46.5869 27.861 46.6865 28.0365C46.7811 28.2093 46.8939 28.3582 47.0249 28.4832C47.219 28.6694 47.3968 28.7397 47.5585 28.6939C47.5777 28.6885 47.5926 28.6822 47.603 28.6751L47.6492 28.662C47.6992 28.6478 47.7292 28.6581 47.739 28.6927C47.752 28.7389 47.731 28.7823 47.676 28.8228C47.6154 28.8732 47.5621 28.9049 47.5159 28.918C47.2888 28.9823 47.0559 28.8278 46.8173 28.4547C46.6438 28.1795 46.5152 27.8938 46.4313 27.5974C46.4084 27.5166 46.3837 27.3926 46.3572 27.2255C46.2039 27.0361 46.0886 26.8713 46.0115 26.731C45.9296 26.75 45.8155 26.7802 45.6692 26.8216ZM49.0668 27.9865C49.4132 27.8884 49.6573 27.7154 49.7992 27.4674C49.9564 27.2151 50.0005 26.9157 49.9316 26.5694C49.4407 26.4797 48.8699 26.4459 48.2193 26.4679C47.5687 26.4899 46.9523 26.552 46.3702 26.6544C46.3703 26.8165 46.3806 26.9924 46.401 27.182C46.7199 27.5449 47.1267 27.7997 47.6213 27.9466C48.127 28.1028 48.6088 28.1161 49.0668 27.9865ZM46.4038 25.0985C46.3962 25.0715 46.3731 25.0635 46.3346 25.0744C46.2961 25.0853 46.2532 25.1099 46.2059 25.1483C46.061 25.2973 45.9767 25.4916 45.953 25.7311C45.9293 25.9706 45.9491 26.202 46.0123 26.4252C46.0253 26.4714 46.0488 26.5396 46.0826 26.6298L46.2838 26.5916C46.2498 26.119 46.2873 25.649 46.3961 25.1817C46.4045 25.1378 46.407 25.11 46.4038 25.0985ZM46.1129 26.7148C46.1856 26.8688 46.2614 26.997 46.3402 27.0994C46.3074 26.8218 46.2899 26.6792 46.2877 26.6715C46.2482 26.6786 46.1899 26.693 46.1129 26.7148ZM46.7921 23.2759L47.2456 23.2037C47.4804 23.1372 47.7073 23.0356 47.9263 22.8988C48.229 22.705 48.3558 22.5216 48.3068 22.3484C48.2981 22.3176 48.2776 22.2818 48.2453 22.2411C48.213 22.2003 48.1957 22.1761 48.1935 22.1684C48.1848 22.1376 48.1978 22.1173 48.2324 22.1075C48.2671 22.0977 48.3112 22.1289 48.3649 22.201C48.4175 22.2693 48.4497 22.3246 48.4617 22.3669C48.5173 22.5632 48.4176 22.7764 48.1626 23.0065C47.9065 23.2328 47.6573 23.3802 47.4148 23.4489C47.3686 23.4619 47.3353 23.4693 47.315 23.4709C47.5357 23.5456 47.9061 23.738 48.4262 24.0481C48.6097 24.0502 48.791 24.0446 48.9702 24.0313C49.0817 24.0289 49.1516 24.0777 49.18 24.1777C49.193 24.2239 49.1831 24.2475 49.1501 24.2485C49.1226 24.2688 49.0802 24.3099 49.0229 24.3718C48.9705 24.4365 48.9328 24.4722 48.9097 24.4787C48.8866 24.4852 48.8693 24.4756 48.8579 24.4497C48.7959 24.3924 48.704 24.3249 48.5823 24.2471C47.8307 24.2062 46.7451 24.079 45.3253 23.8656C45.3077 23.8622 45.2756 23.8589 45.2289 23.8555C45.1481 23.8492 45.0564 23.8336 44.9537 23.8086C44.8532 23.7913 44.7801 23.7019 44.7344 23.5402C44.718 23.4825 44.7233 23.4498 44.7503 23.4422C44.7503 23.4422 45.0004 23.4961 45.5007 23.6039C46.6731 23.8541 47.5807 23.9984 48.2235 24.0369C47.6457 23.714 47.1899 23.5208 46.856 23.4573C46.8109 23.4451 46.7814 23.414 46.7672 23.364C46.753 23.314 46.7614 23.2846 46.7921 23.2759ZM48.7718 24.2558L48.9043 24.3493C48.9258 24.3224 48.9607 24.2917 49.0092 24.2573C48.885 24.2591 48.8059 24.2587 48.7718 24.2558ZM46.8276 21.0876L46.713 21.1013C46.6514 21.1187 46.6074 21.154 46.5809 21.2073C46.5494 21.2577 46.5413 21.3099 46.5566 21.3638C47.0392 21.2771 47.4312 21.2888 47.7326 21.3989L47.6819 21.2199C47.7269 21.2612 47.7532 21.2954 47.7608 21.3223C47.7673 21.3454 47.7703 21.3633 47.7697 21.3759C47.768 21.3847 47.7688 21.3949 47.7721 21.4064C47.7749 21.4015 47.7916 21.4092 47.8223 21.4296C47.8481 21.4473 47.9298 21.501 48.0675 21.5909C48.2052 21.6808 48.2888 21.7778 48.3182 21.8817C48.3606 22.0318 48.2857 22.1341 48.0932 22.1885C47.8584 22.255 47.5928 22.2345 47.2964 22.1272C47.1637 22.2312 47.0146 22.3067 46.8491 22.3535C46.6798 22.4015 46.5243 22.4101 46.3826 22.3796C46.1042 22.3212 45.9383 22.1977 45.8849 22.0091C45.8174 21.7704 45.9822 21.5742 46.3792 21.4202C46.3325 21.2256 46.4053 21.1011 46.5978 21.0466C46.7556 21.0019 46.8415 21.0046 46.8557 21.0547C46.8601 21.0701 46.8507 21.081 46.8276 21.0876ZM46.0103 21.9674C46.0451 22.0905 46.1985 22.1698 46.4704 22.205C46.6352 22.2291 46.7849 22.222 46.9196 22.1839C47.0543 22.1458 47.1528 22.1117 47.2149 22.0816C46.8329 21.9362 46.5669 21.7454 46.4169 21.5093C46.1077 21.68 45.9722 21.8326 46.0103 21.9674ZM46.5769 21.4578C46.6125 21.5392 46.7289 21.6497 46.9264 21.7892C47.1189 21.9259 47.2635 22.0035 47.3601 22.0218C47.6298 21.8582 47.7617 21.7149 47.756 21.5918C47.6452 21.5234 47.4511 21.4765 47.1737 21.4511C46.8952 21.4218 46.6963 21.424 46.5769 21.4578ZM47.4235 22.0476C47.675 22.1136 47.8643 22.1286 47.9913 22.0927C48.1144 22.0578 48.164 21.998 48.1401 21.9134C48.1107 21.8094 47.9944 21.7072 47.7914 21.6067C47.8119 21.7381 47.6893 21.885 47.4235 22.0476ZM46.2232 18.6875C46.3459 18.6362 46.4221 18.5897 46.4519 18.548C46.4767 18.5035 46.4987 18.4786 46.518 18.4731C46.5334 18.4688 46.5427 18.4724 46.546 18.4839C46.5558 18.5186 46.4852 18.6071 46.3343 18.7496C46.5382 18.7501 46.7233 18.7726 46.8896 18.8169C47.1285 18.8824 47.267 18.9824 47.3051 19.1171C47.3421 19.248 47.3281 19.3601 47.263 19.4533C47.1941 19.5476 47.1115 19.6084 47.0153 19.6356C46.9153 19.664 46.8328 19.6811 46.7679 19.6869C46.9968 19.776 47.2081 19.8762 47.4018 19.9877C47.6992 20.1571 47.8647 20.3015 47.8985 20.4208C47.9301 20.5324 47.8728 20.6089 47.7265 20.6503C47.4879 20.7179 47.1558 20.6975 46.7302 20.5893C46.7549 20.6031 46.834 20.6327 46.9674 20.6781C47.0969 20.7246 47.1633 20.7536 47.1666 20.7651C47.1688 20.7728 47.1641 20.7783 47.1526 20.7816C47.1064 20.7947 46.9549 20.744 46.698 20.6296C46.4401 20.5114 46.2768 20.4266 46.2083 20.3754C46.1386 20.3202 46.0967 20.2677 46.0826 20.2176C46.0673 20.1638 46.0712 20.1335 46.0943 20.127C46.1059 20.1237 46.1196 20.1282 46.1355 20.1403C46.2864 20.2181 46.5565 20.3059 46.9458 20.4036C47.3313 20.5024 47.5837 20.5349 47.703 20.5011C47.7492 20.488 47.7679 20.4661 47.7592 20.4353C47.6906 20.1928 47.2799 19.9536 46.5272 19.7177C46.5173 19.7121 46.4742 19.6994 46.3979 19.6794C46.3177 19.6605 46.2571 19.6445 46.2159 19.6312C46.1709 19.619 46.138 19.5763 46.1173 19.5032C46.0955 19.4262 46.1135 19.3795 46.1712 19.3632C46.4397 19.4452 46.701 19.4502 46.955 19.3784C47.1397 19.3261 47.2185 19.2518 47.1913 19.1556C47.164 19.0594 47.0274 18.9733 46.7815 18.8974C46.5789 18.8425 46.4105 18.8133 46.2765 18.8096C45.9919 18.9941 45.8324 19.0912 45.7977 19.101C45.7323 19.1195 45.6914 19.0999 45.6751 19.0422C45.6566 18.9767 45.6831 18.909 45.7547 18.8388C45.8214 18.7659 45.8932 18.7186 45.9702 18.6968C46.0471 18.675 46.1315 18.6719 46.2232 18.6875ZM44.5171 16.8893C44.5156 16.8399 44.5475 16.8059 44.6129 16.7874C44.6745 16.7699 44.8003 16.7884 44.9903 16.8427C45.1792 16.8932 45.3005 16.9399 45.3542 16.9829C45.525 17.0136 45.7321 17.0256 45.9755 17.0191C46.214 17.0098 46.4199 16.9806 46.593 16.9316C46.7662 16.8826 46.8387 16.8081 46.8104 16.708C46.7766 16.5887 46.6329 16.4776 46.3793 16.3748C46.3025 16.3383 46.1172 16.2785 45.8235 16.1954C45.796 16.1865 45.7807 16.1763 45.7774 16.1647C45.7741 16.1532 45.7783 16.1458 45.7898 16.1425L45.8277 16.1443C46.4851 16.2783 46.8502 16.4743 46.9232 16.7322C46.9864 16.9554 46.8563 17.1128 46.533 17.2043C46.3752 17.2489 46.1306 17.2807 45.7993 17.2997C46.1216 17.3664 46.3794 17.4327 46.5727 17.4986C46.9163 17.6258 47.1132 17.778 47.1633 17.955C47.2134 18.1321 47.1191 18.2544 46.8805 18.3219C46.5148 18.4254 46.0711 18.341 45.5493 18.0688C45.0274 17.7966 44.6925 17.4799 44.5445 17.1185C43.7761 17.0325 43.1692 16.9445 42.7238 16.8543C42.6167 16.8139 42.5431 16.7226 42.5028 16.5801C42.4875 16.5263 42.4934 16.4955 42.5203 16.4879C43.171 16.628 43.8366 16.7618 44.5171 16.8893ZM46.7299 18.2086C46.8993 18.1607 46.9693 18.0848 46.9399 17.9808C46.8603 17.6999 46.4688 17.5134 45.7652 17.4216C45.8101 17.492 45.8369 17.5426 45.8456 17.5734C45.8532 17.6004 45.8493 17.616 45.8339 17.6204C45.8147 17.6258 45.7903 17.6057 45.7607 17.56C45.7262 17.5116 45.6711 17.4565 45.5955 17.3948C45.4933 17.3863 45.4068 17.3817 45.3359 17.3809C45.2639 17.3764 45.2258 17.3664 45.2214 17.351C45.2138 17.324 45.2273 17.3057 45.2619 17.2959C45.2966 17.2861 45.365 17.2854 45.4672 17.2939L45.3627 17.2112L44.6937 17.1387C44.8419 17.4127 45.1481 17.6794 45.6122 17.9388C46.0764 18.1982 46.449 18.2881 46.7299 18.2086ZM45.3492 14.3211C45.3119 14.3067 45.2916 14.2938 45.2883 14.2822C45.285 14.2707 45.293 14.2622 45.3123 14.2567C45.3277 14.2524 45.3472 14.2552 45.3708 14.2651C45.9845 14.4656 46.3181 14.6601 46.3715 14.8487C46.4009 14.9526 46.3751 15.0451 46.2941 15.1262C46.2082 15.2046 46.1056 15.2606 45.9863 15.2944C45.8631 15.3293 45.7172 15.3498 45.5485 15.3559C46.156 15.4459 46.4962 15.6199 46.5692 15.8777C46.6138 16.0355 46.5342 16.1433 46.3302 16.201C46.003 16.2936 45.6177 16.2322 45.1743 16.0168C44.7298 15.7976 44.4629 15.5301 44.3736 15.2145C44.3311 15.0644 44.3753 14.9709 44.5062 14.9338C44.6678 14.8881 44.86 14.9501 45.0826 15.1199C45.3913 15.1531 45.6746 15.1332 45.9325 15.0602C46.1865 14.9883 46.2999 14.9043 46.2727 14.808C46.2367 14.681 45.9289 14.5187 45.3492 14.3211ZM44.87 15.1177C44.7679 15.0801 44.6745 15.0733 44.5898 15.0972C44.5052 15.1212 44.4743 15.1736 44.4971 15.2544C44.5516 15.4469 44.8135 15.645 45.2827 15.849C45.7481 16.054 46.0828 16.1276 46.2868 16.0699C46.3753 16.0448 46.4076 15.99 46.3837 15.9053C46.315 15.6628 45.9792 15.5043 45.3761 15.4297C45.4149 15.4935 45.4376 15.537 45.4442 15.5601C45.4507 15.5832 45.4482 15.5964 45.4366 15.5996C45.4174 15.6051 45.3905 15.5836 45.356 15.5351L45.2015 15.3856C45.1339 15.3964 45.0377 15.3799 44.9131 15.3362C44.7847 15.2936 44.7112 15.2396 44.6927 15.1741C44.6861 15.151 44.6983 15.1351 44.729 15.1264C44.7598 15.1177 44.8068 15.1148 44.87 15.1177ZM44.2895 12.8682C44.4011 12.8366 44.5148 12.8418 44.6307 12.8839C44.7454 12.9221 44.8115 12.9719 44.8289 13.0335C44.8322 13.0451 44.8261 13.053 44.8107 13.0574C44.7465 13.0506 44.6772 13.0411 44.6031 13.0288C44.5251 13.0177 44.4438 13.024 44.3591 13.048C44.2706 13.0731 44.2356 13.1183 44.2541 13.1837C44.2791 13.2723 44.4267 13.3822 44.6967 13.5137C44.9617 13.6424 45.1725 13.7261 45.329 13.765L46.0632 13.8254C46.073 13.8309 46.0813 13.8452 46.0878 13.8683C46.0932 13.8875 46.0885 13.9221 46.0735 13.9721C46.0575 14.0182 46.0398 14.044 46.0206 14.0494C46.003 14.0461 45.9753 14.0435 45.9374 14.0418C45.8984 14.0362 45.8676 14.0304 45.8451 14.0243C45.4832 13.9646 45.1964 13.9355 44.9849 13.9372C44.7684 13.9361 44.5639 13.9628 44.3715 14.0173C44.4374 14.0152 44.5937 14.0458 44.8402 14.1091C45.212 14.2034 45.4011 14.2621 45.4076 14.2852C45.4142 14.3083 45.4117 14.3215 45.4001 14.3248C45.3924 14.327 45.2373 14.2856 44.9348 14.2008C44.6312 14.1121 44.3596 14.0705 44.12 14.076C44.0134 14.0812 43.9525 14.0569 43.9372 14.003C43.9198 13.9414 43.988 13.8888 44.142 13.8453C44.4191 13.7668 44.7848 13.759 45.239 13.8216C44.9223 13.6868 44.7083 13.5915 44.5969 13.5357C44.3 13.3827 44.1342 13.2447 44.0993 13.1215C44.0644 12.9984 44.1278 12.9139 44.2895 12.8682ZM42.7131 10.9554C42.7246 10.9521 42.7411 10.9662 42.7624 10.9975C42.7799 11.03 42.8037 11.0627 42.8339 11.0958C43.006 11.2341 43.3776 11.2911 43.9485 11.2667C44.8228 11.2272 45.2706 11.2085 45.2921 11.2107C45.8695 11.2095 46.3387 11.2513 46.6994 11.3363C47.1903 11.4551 47.578 11.6571 47.8624 11.9425C47.9956 12.0752 48.09 12.2397 48.1455 12.436C48.2011 12.6323 48.1736 12.8729 48.063 13.1578C47.9524 13.4427 47.8008 13.6124 47.6084 13.6668C47.593 13.6712 47.5837 13.6676 47.5804 13.656C47.5782 13.6483 47.587 13.6354 47.6069 13.6174C47.9652 13.3413 48.0845 12.9916 47.9647 12.5683C47.9037 12.3527 47.7951 12.1673 47.6389 12.012C47.3375 11.7107 46.9448 11.5204 46.461 11.4412C46.1364 11.3958 45.6913 11.395 45.1258 11.4386C44.6032 11.4868 44.2133 11.5119 43.9562 11.514L43.5704 11.5171C43.8276 11.7062 44.4506 11.8438 45.4394 11.9298C45.4471 11.9276 45.4542 11.9381 45.4608 11.9612C45.4673 11.9843 45.4615 12.015 45.4432 12.0534C45.4201 12.0891 45.395 12.1107 45.3681 12.1183L45.0978 12.0888C44.8616 12.0767 44.5356 12.1294 44.12 12.2471C43.8044 12.3364 43.6656 12.4484 43.7037 12.5831C43.7244 12.6562 43.7981 12.7331 43.9249 12.8136L44.1207 12.9328C44.124 12.9443 44.1218 12.9512 44.1141 12.9534C44.1025 12.9566 44.0841 12.9577 44.0588 12.9565C43.9589 12.9266 43.8473 12.8626 43.7239 12.7645C43.6005 12.6664 43.5268 12.575 43.5029 12.4903C43.4571 12.3287 43.5901 12.2037 43.9019 12.1155C44.1559 12.0436 44.4516 12.016 44.7889 12.0328C44.1096 11.88 43.6807 11.7083 43.502 11.5178C43.2778 11.5189 43.1131 11.4948 43.0077 11.4457C42.8612 11.3832 42.7612 11.2577 42.7078 11.0691C42.6882 10.9998 42.69 10.9619 42.7131 10.9554Z" fill="white"/>
<defs>
<linearGradient id="paint0_linear" x1="34.1157" y1="21.5" x2="34.1157" y2="43.0346" gradientUnits="userSpaceOnUse">
<stop offset="0.0699228" stop-color="#F68475"/>
<stop offset="0.284184" stop-color="#F8A253"/>
<stop offset="0.466734" stop-color="#F8A250"/>
<stop offset="0.627502" stop-color="#FFD568"/>
<stop offset="0.967548" stop-color="#FFC327"/>
</linearGradient>
<radialGradient id="paint1_radial" cx="0" cy="0" r="1" gradientUnits="userSpaceOnUse" gradientTransform="translate(28 31.5) rotate(49.3987) scale(4.60977)">
<stop stop-color="#0EEF83"/>
<stop offset="1" stop-color="#1DBBDE"/>
</radialGradient>
<linearGradient id="paint2_linear" x1="30" y1="31" x2="30" y2="34.5" gradientUnits="userSpaceOnUse">
<stop stop-color="#F8A250"/>
<stop offset="0.504476" stop-color="#648EFF"/>
<stop offset="1" stop-color="#4B6DFF"/>
</linearGradient>
<linearGradient id="paint3_linear" x1="20.2586" y1="7" x2="20.2586" y2="27.9474" gradientUnits="userSpaceOnUse">
<stop stop-color="#EF32D9"/>
<stop offset="1" stop-color="#F8A54B"/>
</linearGradient>
</defs>
</svg>
