<svg width="396" height="401" viewBox="0 0 396 401" fill="none" xmlns="http://www.w3.org/2000/svg">
<path d="M49.9353 139.708L95.8713 155.139C90.692 165.732 86.5605 176.641 83.5161 187.764L81.7737 194.18L147.628 247.561L155.548 246.182C169.279 243.716 182.746 240.369 195.822 236.173L214.869 273.386C215.056 273.755 215.353 274.08 215.733 274.333C216.114 274.586 216.565 274.758 217.048 274.834C217.531 274.911 218.03 274.889 218.5 274.77C218.97 274.652 219.396 274.441 219.74 274.156L248.529 250.834C253.228 247.028 256.888 242.466 259.276 237.444C261.663 232.421 262.724 227.048 262.389 221.673L261.36 206.691C314.661 174.804 368.596 118.888 383.288 21.3011C383.705 18.8544 383.418 16.3628 382.451 14.0205C381.484 11.6781 379.862 9.5484 377.712 7.79727C375.562 6.04613 372.941 4.7209 370.055 3.92487C367.169 3.12883 364.095 2.88351 361.072 3.20801C240.649 15.2059 171.586 58.931 132.224 101.982L113.77 101.212C107.149 100.921 100.526 101.755 94.3266 103.661C88.1272 105.567 82.4888 108.503 77.7741 112.28L48.9849 135.602C48.586 135.877 48.2838 136.232 48.109 136.632C47.9342 137.032 47.8929 137.462 47.9894 137.879C48.0859 138.296 48.3167 138.684 48.6584 139.006C49.0001 139.327 49.4406 139.569 49.9353 139.708ZM234.63 82.8627C239.619 78.8349 245.97 76.095 252.88 74.9891C259.79 73.8832 266.949 74.4608 273.455 76.649C279.96 78.8372 285.519 82.5379 289.429 87.2837C293.34 92.0295 295.427 97.6076 295.427 103.314C295.427 109.02 293.34 114.598 289.429 119.344C285.519 124.089 279.96 127.79 273.455 129.978C266.949 132.166 259.79 132.744 252.88 131.638C245.97 130.532 239.619 127.792 234.63 123.765C231.307 121.082 228.671 117.895 226.872 114.386C225.073 110.876 224.147 107.114 224.147 103.314C224.147 99.5137 225.073 95.7511 226.872 92.2417C228.671 88.7322 231.307 85.545 234.63 82.8627V82.8627ZM41.3421 251.828C33.7192 249.661 25.5333 249.13 17.5821 250.288C16.8754 250.412 16.1415 250.389 15.449 250.22C14.7564 250.052 14.1279 249.744 13.6221 249.326C12.995 248.82 12.5751 248.17 12.4192 247.464C12.2634 246.758 12.3792 246.031 12.7509 245.38C21.1857 230.687 43.5597 201.142 84.0705 225.009C84.2821 225.163 84.4514 225.35 84.5673 225.561C84.6832 225.771 84.7431 225.998 84.7431 226.228C84.7431 226.458 84.6832 226.686 84.5673 226.896C84.4514 227.106 84.2821 227.294 84.0705 227.447C78.6469 230.907 74.3046 235.353 71.3946 240.424C68.4846 245.496 67.0887 251.051 67.3197 256.64C67.3491 257.296 67.684 257.919 68.257 258.383C68.83 258.847 69.5987 259.118 70.4085 259.142C77.2788 259.366 84.1181 258.281 90.3767 255.974C96.6353 253.668 102.139 250.204 106.444 245.861C106.634 245.673 106.872 245.522 107.143 245.418C107.414 245.314 107.709 245.26 108.009 245.26C108.308 245.26 108.604 245.314 108.874 245.418C109.145 245.522 109.383 245.673 109.573 245.861C115.196 251.283 130.68 268.991 113.533 286.089C106.047 293.378 95.3216 297.988 83.6745 298.921C67.0425 300.365 36.3129 304.76 23.7597 316.373C23.2557 316.857 22.5992 317.22 21.8601 317.426C21.121 317.631 20.327 317.67 19.5628 317.538C18.7986 317.406 18.0929 317.109 17.5209 316.678C16.9489 316.247 16.5321 315.698 16.3149 315.09C11.8797 302.835 4.98926 275.439 41.3421 251.828Z" fill="url(#paint0_linear)"/>
<ellipse cx="259.5" cy="103" rx="23.5" ry="21" fill="#00B59C"/>
<defs>
<linearGradient id="paint0_linear" x1="197.913" y1="3.06897" x2="197.913" y2="317.614" gradientUnits="userSpaceOnUse">
<stop stop-color="#9CFFAC"/>
<stop offset="1" stop-color="#00B59C"/>
</linearGradient>
</defs>
</svg>
