<svg width="512" height="512" viewBox="0 0 512 512" fill="none" xmlns="http://www.w3.org/2000/svg">
<g clip-path="url(#clip0)">
<path d="M490.761 1.227L8.52498 228.905C3.35598 231.38 0.0519805 236.591 -1.95379e-05 242.318C-0.0310195 248.067 3.14898 253.339 8.29698 255.856L159.385 331.401L195.311 316.689L180.599 352.614L256.144 503.702C258.565 508.614 263.74 512.044 269.682 511.999C275.41 511.947 280.62 508.643 283.096 503.474L510.773 21.239C516.263 9.783 502.217 -4.263 490.761 1.227Z" fill="url(#paint0_linear)"/>
<path d="M330.5 181.5C358 163.5 286.026 204.76 280.164 210.623L159.385 331.401L173.528 338.472L180.599 352.615L301.377 231.837C307.239 225.974 353.5 160 330.5 181.5Z" fill="url(#paint1_linear)"/>
</g>
<defs>
<linearGradient id="paint0_linear" x1="131.676" y1="380.267" x2="507.082" y2="4.86126" gradientUnits="userSpaceOnUse">
<stop stop-color="#00B59C"/>
<stop offset="1" stop-color="#9CFFAC"/>
</linearGradient>
<linearGradient id="paint1_linear" x1="170.004" y1="341.94" x2="301.368" y2="210.575" gradientUnits="userSpaceOnUse">
<stop stop-color="#C3FFE8"/>
<stop offset="0.9973" stop-color="#F0FFF4"/>
</linearGradient>
<clipPath id="clip0">
<rect width="512" height="512" fill="white"/>
</clipPath>
</defs>
</svg>
