<svg width="512" height="512" viewBox="0 0 512 512" fill="none" xmlns="http://www.w3.org/2000/svg">
<g clip-path="url(#clip0)">
<path d="M507.606 4.39401C503.128 -0.0829911 496.322 -1.26599 490.598 1.43501L8.59802 228.877C3.40502 231.328 0.066019 236.529 1.90462e-05 242.272C-0.065981 248.015 3.15402 253.291 8.29102 255.859L173.524 338.475L256.141 503.709C258.683 508.795 263.879 512.001 269.556 512.001C269.613 512.001 269.67 512.001 269.728 512C275.47 511.935 280.671 508.596 283.123 503.402L510.564 21.402C513.268 15.676 512.083 8.87001 507.606 4.39401ZM269.168 462.678L202.957 330.256L301.378 231.834C307.236 225.976 337 174.5 325 189.5C338.5 178.5 286.023 204.763 280.165 210.621L181.744 309.042L49.322 242.832L465.595 46.406L269.168 462.678Z" fill="url(#paint0_linear)"/>
</g>
<defs>
<linearGradient id="paint0_linear" x1="507.607" y1="4.39401" x2="131.672" y2="380.328" gradientUnits="userSpaceOnUse">
<stop stop-color="#00B59C"/>
<stop offset="1" stop-color="#9CFFAC"/>
</linearGradient>
<clipPath id="clip0">
<rect width="512" height="512" fill="white"/>
</clipPath>
</defs>
</svg>
