<svg width="483" height="381" viewBox="0 0 483 381" fill="none" xmlns="http://www.w3.org/2000/svg">
<path d="M412.608 27.5272C395.674 27.5275 382.763 36.8206 381.285 47.958H370.789C354.976 47.958 342.215 56.2973 342.215 66.3526C342.215 76.408 354.976 84.7473 370.789 84.7473H454.426C470.234 84.7473 483 76.408 483 66.3526C483 56.2973 470.234 47.958 454.426 47.958H443.925C442.447 36.8206 429.542 27.5275 412.608 27.5272ZM240.867 32.0694C239.698 32.0633 238.53 32.2519 237.472 32.6232C214.689 40.6336 196.272 53.3133 184.211 69.2876C174.865 81.6685 169.432 96.046 169.306 108.735L169.118 127.867L122.363 167.759C121.494 168.5 121.025 169.402 121.016 170.326L120.562 214.665C120.547 216.39 122.146 217.96 124.648 218.664C127.145 219.368 130.072 219.075 132.1 217.914L168.417 197.108L168.306 208.066C168.282 210.471 171.354 212.434 175.165 212.449L185.293 212.492L193.123 236.72C193.775 238.735 196.581 240.195 199.841 240.207L277.725 240.518C280.985 240.53 283.816 239.101 284.506 237.089L292.819 212.918L302.962 212.961C306.768 212.976 309.878 211.035 309.902 208.633L310.009 197.672L345.91 218.765C347.915 219.941 350.832 220.258 353.343 219.575C354.145 219.356 354.86 219.048 355.459 218.676C356.734 217.881 357.492 216.786 357.507 215.61L357.946 171.264C357.956 170.344 357.507 169.442 356.657 168.692L310.704 128.431L310.893 109.293C311.023 96.6068 305.874 82.1867 296.779 69.7356C285.042 53.6635 266.886 40.8406 244.263 32.6476C243.215 32.2666 242.041 32.0742 240.867 32.0694ZM70.3924 32.4147C53.4584 32.415 40.5507 41.7065 39.0737 52.847H28.5743C12.7647 52.847 0 61.1863 0 71.2416C0 81.297 12.7647 89.6363 28.5743 89.6363H112.211C128.024 89.6363 140.785 81.297 140.785 71.2416C140.785 61.1863 128.024 52.847 112.211 52.847H101.715C100.237 41.7065 87.3264 32.415 70.3924 32.4147ZM240.5 68.8139C249.151 68.8474 257.26 71.0024 263.336 74.8855C269.417 78.7687 272.736 83.9106 272.678 89.3696C272.62 95.0023 268.939 100.099 263.037 103.778C257.135 107.453 249.02 109.712 240.094 109.675C231.444 109.642 223.334 107.481 217.253 103.598C211.177 99.7145 207.864 94.5726 207.917 89.1136C208.028 77.8482 222.649 68.7438 240.5 68.8139ZM240.413 77.5159C235.293 77.4977 230.632 78.79 227.247 80.8992C223.861 83.0084 221.74 85.9345 221.707 89.1684C221.678 92.2987 223.59 95.2553 227.078 97.4834C230.565 99.7145 235.216 100.952 240.181 100.973C250.431 101.013 258.82 95.7857 258.888 89.3148C258.917 86.1845 257.019 83.2309 253.527 80.9998C250.039 78.7717 245.378 77.5373 240.413 77.5159ZM168.963 142.633C169.05 156.913 168.683 171.047 168.543 185.287L134.458 204.807L134.786 171.797L168.963 142.633ZM310.555 143.197L344.147 172.635L343.819 205.648L310.129 185.851C310.429 171.592 310.511 157.48 310.555 143.197ZM199.387 212.545L232.159 212.676L232.139 215.112C232.115 217.517 235.182 219.473 238.988 219.489C242.799 219.504 245.91 217.569 245.934 215.167L245.953 212.731L278.725 212.862L272.214 231.794L205.521 231.525L199.387 212.545ZM207.284 244.592C203.478 244.577 200.377 246.509 200.348 248.914L200.117 272.399C200.092 274.801 203.155 276.764 206.965 276.779C208.869 276.785 210.602 276.307 211.858 275.523C213.114 274.743 213.897 273.661 213.906 272.457L214.143 248.966C214.167 246.564 211.095 244.607 207.284 244.592ZM238.047 244.711C234.24 244.696 231.13 246.637 231.106 249.039L230.773 281.982C230.748 284.387 233.815 286.344 237.622 286.359C239.525 286.365 241.263 285.892 242.519 285.109C243.775 284.326 244.553 283.238 244.567 282.037L244.895 249.091C244.92 246.689 241.857 244.726 238.047 244.711ZM270.185 244.842C266.379 244.827 263.278 246.759 263.254 249.164L263.018 272.649C262.994 275.051 266.061 277.014 269.867 277.029C271.77 277.035 273.499 276.556 274.755 275.773C276.01 274.993 276.798 273.911 276.812 272.707L277.044 249.216C277.068 246.814 273.996 244.857 270.185 244.842Z" fill="url(#paint0_linear)"/>
<defs>
<linearGradient id="paint0_linear" x1="241.5" y1="27.5272" x2="241.5" y2="286.359" gradientUnits="userSpaceOnUse">
<stop stop-color="#9CFFAC"/>
<stop offset="1" stop-color="#00B59C"/>
</linearGradient>
</defs>
</svg>
