<svg width="50" height="50" viewBox="0 0 50 50" fill="none" xmlns="http://www.w3.org/2000/svg">
<path d="M25.0962 31.4227C25.6272 31.4227 26.0577 31.0783 26.0577 30.6535C26.0577 30.2287 25.6272 29.8843 25.0962 29.8843C24.5651 29.8843 24.1346 30.2287 24.1346 30.6535C24.1346 31.0783 24.5651 31.4227 25.0962 31.4227Z" fill="black"/>
<path d="M8.65385 5.57692C9.71424 5.57692 10.5769 4.88677 10.5769 4.03846C10.5769 3.19015 9.71424 2.5 8.65385 2.5C7.59347 2.5 6.73077 3.19015 6.73077 4.03846C6.73077 4.88669 7.59347 5.57692 8.65385 5.57692ZM8.65385 3.26915C9.18404 3.26915 9.61539 3.61423 9.61539 4.03838C9.61539 4.46254 9.18404 4.80762 8.65385 4.80762C8.12366 4.80762 7.69231 4.46254 7.69231 4.03838C7.69231 3.61423 8.12366 3.26915 8.65385 3.26915Z" fill="black"/>
<path d="M42.7885 7.11538C44.379 7.11538 45.6731 6.08015 45.6731 4.80769C45.6731 3.53523 44.379 2.5 42.7885 2.5C41.1979 2.5 39.9039 3.53523 39.9039 4.80769C39.9039 6.08015 41.1979 7.11538 42.7885 7.11538ZM42.7885 3.26915C43.8489 3.26915 44.7115 3.95931 44.7115 4.80762C44.7115 5.65592 43.8489 6.34608 42.7885 6.34608C41.7281 6.34608 40.8654 5.65592 40.8654 4.80762C40.8654 3.95938 41.7281 3.26915 42.7885 3.26915Z" fill="black"/>
<path d="M17.0673 4.42289C17.4656 4.42289 17.7885 4.16459 17.7885 3.84597C17.7885 3.52734 17.4656 3.26904 17.0673 3.26904C16.669 3.26904 16.3462 3.52734 16.3462 3.84597C16.3462 4.16459 16.669 4.42289 17.0673 4.42289Z" fill="black"/>
<path d="M37.2596 6.7305C37.6579 6.7305 37.9808 6.4722 37.9808 6.15358C37.9808 5.83496 37.6579 5.57666 37.2596 5.57666C36.8613 5.57666 36.5385 5.83496 36.5385 6.15358C36.5385 6.4722 36.8613 6.7305 37.2596 6.7305Z" fill="black"/>
<path d="M22.8365 6.34622C23.2348 6.34622 23.5577 6.08793 23.5577 5.7693C23.5577 5.45068 23.2348 5.19238 22.8365 5.19238C22.4383 5.19238 22.1154 5.45068 22.1154 5.7693C22.1154 6.08793 22.4383 6.34622 22.8365 6.34622Z" fill="black"/>
<path d="M43.2212 7.88467H31.9409C32.5727 7.37921 34.0982 6.15882 35.1315 5.33213C35.8573 4.75167 35.8575 3.81175 35.1315 3.23121L33.8 2.1659C33.0744 1.58544 31.8995 1.58521 31.1739 2.1659L24.0255 7.88467H6.77885C4.89664 7.88467 3.36539 9.10967 3.36539 10.6154V30.5386C3.36539 32.0443 4.89664 33.2694 6.77885 33.2694H8.17308V34.4232C8.17308 34.6356 8.38837 34.8078 8.65385 34.8078H18.2692C18.5347 34.8078 18.75 34.6356 18.75 34.4232V33.2694H19.7115V37.5001H18.4615C18.1961 37.5001 17.9808 37.6723 17.9808 37.8847C17.9808 38.0971 18.1961 38.2694 18.4615 38.2694H20.1923C21.6462 38.2694 30.0129 38.2694 31.7308 38.2694C31.9963 38.2694 32.2115 38.0971 32.2115 37.8847C32.2115 37.6723 31.9963 37.5001 31.7308 37.5001H30.3846V33.2694H31.25V34.4232C31.25 34.6356 31.4652 34.8078 31.7308 34.8078H41.3462C41.6117 34.8078 41.8269 34.6356 41.8269 34.4232V33.2694H43.2212C45.1034 33.2694 46.6346 32.0443 46.6346 30.5386V10.6154C46.6346 9.10967 45.1034 7.88467 43.2212 7.88467ZM28.3643 5.50144L29.3496 6.28975L20.2241 13.5902L18.6846 13.2452L28.3643 5.50144ZM30.2374 4.00306L32.8353 6.08136L31.6421 7.0359L29.0442 4.95752L30.2374 4.00306ZM19.971 14.3323L20.4497 15.7764L17.4602 16.3379L18.1239 13.9184L19.971 14.3323ZM17.3308 13.2727C17.3209 13.2893 17.3125 13.3064 17.3056 13.3241C17.3041 13.3277 17.3017 13.3307 17.3005 13.3344C17.2995 13.3372 17.2995 13.3399 17.2988 13.3427C17.2778 13.4081 16.3533 16.7891 16.3551 16.7814C16.3503 16.8021 16.3479 16.8227 16.3473 16.8434C16.3472 16.8464 16.3463 16.849 16.3463 16.8519L16.3469 16.857C16.3498 17.0308 16.5008 17.1347 16.4895 17.1258C16.4972 17.1319 16.5063 17.1363 16.5143 17.1418C16.5686 17.1793 16.562 17.1722 16.5953 17.1868C16.6528 17.2124 16.6382 17.2058 16.6852 17.2174C16.8144 17.2494 15.7194 17.2336 37.095 17.2364C37.5835 17.2364 37.9809 17.5544 37.9809 17.9451C37.9809 18.3358 37.5835 18.6537 37.095 18.6537H26.4423C25.3819 18.6537 24.5192 19.3439 24.5192 20.1923C24.5192 21.0405 25.3819 21.7307 26.4423 21.7307H29.8077C30.0733 21.7307 30.2885 21.5585 30.2885 21.3461C30.2885 21.1337 30.0733 20.9615 29.8077 20.9615H26.4423C25.9121 20.9615 25.4808 20.6164 25.4808 20.1923C25.4808 19.7681 25.9121 19.423 26.4423 19.423H37.0949C38.1136 19.423 38.9423 18.76 38.9423 17.9451C38.9423 17.1301 38.1136 16.4672 37.0949 16.4672H20.9788C20.9923 16.4646 21.1511 16.4349 21.1645 16.4321C21.1688 16.4312 21.1724 16.4294 21.1766 16.4285C21.2561 16.4097 21.3269 16.3758 21.3813 16.3324L28.0948 10.9614H42.7885V27.8846H7.21154V10.9615H20.1793C17.1616 13.3778 17.386 13.18 17.3308 13.2727ZM21.2919 15.3161L20.901 14.1367L30.0295 6.83367L30.9622 7.57982C29.4628 8.77929 22.0334 14.7228 21.2919 15.3161ZM31.8538 2.70982C32.2035 2.4299 32.77 2.42982 33.1202 2.70982L34.4517 3.77506C34.8017 4.05498 34.8017 4.50813 34.4517 4.78813L33.5151 5.53744L30.9172 3.45913L31.8538 2.70982ZM17.7885 34.0385H9.13462V33.2693H17.7885V34.0385ZM29.4231 37.5001H20.6731V33.2693H29.4231V37.5001ZM40.8654 34.0385H32.2115V33.2693H40.8654V34.0385ZM45.6731 30.5385C45.6731 31.6201 44.5731 32.5001 43.2212 32.5001C35.2333 32.5001 46.4413 32.5001 6.77885 32.5001C5.42683 32.5001 4.32693 31.6201 4.32693 30.5385V10.6154C4.32693 9.53375 5.42683 8.65382 6.77885 8.65382H23.0639L21.1409 10.1923H6.73077C6.46529 10.1923 6.25 10.3645 6.25 10.5769V28.2693C6.25 28.4817 6.46529 28.6539 6.73077 28.6539H43.2692C43.5348 28.6539 43.75 28.4817 43.75 28.2693V10.5769C43.75 10.3645 43.5348 10.1923 43.2692 10.1923H29.0563L30.9793 8.65382H43.2212C44.5731 8.65382 45.6731 9.53375 45.6731 10.6154V30.5385Z" fill="#FB11E3"/>
<path d="M31.25 21.7307C31.5155 21.7307 31.7308 21.5585 31.7308 21.346C31.7308 21.1336 31.5155 20.9614 31.25 20.9614C30.9845 20.9614 30.7692 21.1336 30.7692 21.346C30.7692 21.5585 30.9845 21.7307 31.25 21.7307Z" fill="black"/>
<path d="M32.6923 21.7307C32.9578 21.7307 33.1731 21.5585 33.1731 21.346C33.1731 21.1336 32.9578 20.9614 32.6923 20.9614C32.4268 20.9614 32.2115 21.1336 32.2115 21.346C32.2115 21.5585 32.4268 21.7307 32.6923 21.7307Z" fill="black"/>
<path d="M8.65385 27.1155H22.5962C22.8616 27.1155 23.0769 26.9432 23.0769 26.7308V19.0384C23.0769 18.826 22.8616 18.6538 22.5962 18.6538H8.65385C8.38837 18.6538 8.17308 18.826 8.17308 19.0384V26.7308C8.17308 26.9432 8.38837 27.1155 8.65385 27.1155ZM9.13462 19.423H22.1154V26.3462H9.13462V19.423Z" fill="#686868"/>
<path d="M20.6731 20.1924H10.5769C10.3114 20.1924 10.0962 20.3645 10.0962 20.577C10.0962 20.7894 10.3114 20.9616 10.5769 20.9616H20.6731C20.9386 20.9616 21.1538 20.7894 21.1538 20.577C21.1538 20.3645 20.9386 20.1924 20.6731 20.1924Z" fill="#686868"/>
<path d="M20.6731 21.731H10.5769C10.3114 21.731 10.0962 21.9031 10.0962 22.1156C10.0962 22.328 10.3114 22.5002 10.5769 22.5002H20.6731C20.9386 22.5002 21.1538 22.328 21.1538 22.1156C21.1538 21.9031 20.9386 21.731 20.6731 21.731Z" fill="#686868"/>
<path d="M20.6731 23.269H10.5769C10.3114 23.269 10.0962 23.4412 10.0962 23.6537C10.0962 23.866 10.3114 24.0383 10.5769 24.0383H20.6731C20.9386 24.0383 21.1538 23.866 21.1538 23.6537C21.1538 23.4412 20.9386 23.269 20.6731 23.269Z" fill="#686868"/>
<path d="M14.4231 24.8076H10.5769C10.3114 24.8076 10.0962 24.9798 10.0962 25.1922C10.0962 25.4046 10.3114 25.5768 10.5769 25.5768H14.4231C14.6886 25.5768 14.9038 25.4046 14.9038 25.1922C14.9038 24.9798 14.6886 24.8076 14.4231 24.8076Z" fill="#686868"/>
</svg>
