<svg width="50" height="50" viewBox="0 0 50 50" fill="none" xmlns="http://www.w3.org/2000/svg">
<path d="M38.2812 28.75C38.7127 28.75 39.0625 28.4702 39.0625 28.125C39.0625 27.7798 38.7127 27.5 38.2812 27.5C37.8498 27.5 37.5 27.7798 37.5 28.125C37.5 28.4702 37.8498 28.75 38.2812 28.75Z" fill="black"/>
<path d="M37.9578 8.75004L35.1563 6.50879L30.9875 9.84379C32.2148 10.3125 33.3445 10.9182 34.3477 11.6382L37.9578 8.75004Z" fill="#FFCC17"/>
<path d="M26.4984 11.8799C26.5203 11.8799 26.5406 11.8749 26.5625 11.8749C28.7164 11.8749 30.4688 13.2768 30.4688 14.9999C30.4688 16.7231 28.7164 18.1249 26.5625 18.1249H22.6562V19.9999C22.6562 20.3449 23.007 20.6249 23.4375 20.6249H29.6875C30.9797 20.6249 32.0312 21.4662 32.0312 22.4999C32.0312 23.5337 30.9797 24.3749 29.6875 24.3749H21.875C21.4445 24.3749 21.0938 24.6549 21.0938 24.9999C21.0938 25.3449 21.4445 25.6249 21.875 25.6249H23.4375C24.7297 25.6249 25.7812 26.4662 25.7812 27.4999V30.6249H28.9062C29.0648 30.6249 29.2195 30.6381 29.3687 30.6624C30.2609 28.9081 31.7937 27.7043 33.2859 26.5399C35.4531 24.8493 37.5 23.2518 37.5 19.9999C37.5 14.8962 32.6063 10.6199 26.3781 10.0649C26.4938 10.4456 26.5625 10.8412 26.5625 11.2499C26.5625 11.4624 26.532 11.6712 26.4984 11.8799Z" fill="#FA9621"/>
<path d="M34.5125 27.3288C34.4273 27.5881 34.375 27.8544 34.375 28.125C34.375 29.8481 36.1273 31.25 38.2812 31.25C40.4352 31.25 42.1875 29.8481 42.1875 28.125C42.1875 26.4019 40.4352 25 38.2812 25C37.8227 25 37.3805 25.0731 36.9555 25.1969C36.2195 25.9831 35.3648 26.6631 34.5125 27.3288ZM40.625 28.125C40.625 29.1588 39.5734 30 38.2812 30C36.9891 30 35.9375 29.1588 35.9375 28.125C35.9375 27.0912 36.9891 26.25 38.2812 26.25C39.5734 26.25 40.625 27.0912 40.625 28.125Z" fill="black"/>
<path d="M16.7141 26.54C18.2062 27.7044 19.7391 28.9081 20.6313 30.6625C20.7805 30.6381 20.9352 30.625 21.0938 30.625H24.2188V27.5C24.2188 27.155 23.868 26.875 23.4375 26.875H21.875C20.5828 26.875 19.5312 26.0338 19.5312 25C19.5312 23.9662 20.5828 23.125 21.875 23.125H29.6875C30.118 23.125 30.4688 22.845 30.4688 22.5C30.4688 22.155 30.118 21.875 29.6875 21.875H23.4375C22.1453 21.875 21.0938 21.0338 21.0938 20V18.125H12.7406C12.5945 18.7419 12.5 19.3681 12.5 20C12.5 23.2519 14.5469 24.8494 16.7141 26.54Z" fill="#FA9621"/>
<path d="M37.6914 15.2132L41.8641 11.875L39.0625 9.63379L35.4508 12.5232C36.35 13.3269 37.1062 14.2307 37.6914 15.2132Z" fill="#FFCC17"/>
<path d="M46.2672 8.3525C47.1633 7.63625 47.6562 6.6825 47.6562 5.66938C47.6562 3.5775 45.5281 1.875 42.9133 1.875C41.6461 1.875 40.4555 2.27 39.5594 2.98625L38.6047 3.75L45.3125 9.11625L46.2672 8.3525Z" fill="#7A7777"/>
<path d="M37.5 4.63373L36.261 5.625L42.9685 10.991L44.2075 9.99974L37.5 4.63373Z" fill="#FFCC17"/>
<path d="M25 38.125C26.1539 38.125 27.1828 37.6337 27.7531 36.875H22.2469C22.8172 37.6337 23.8461 38.125 25 38.125Z" fill="black"/>
<path d="M28.9062 34.375H21.0938C20.6633 34.375 20.3125 34.655 20.3125 35C20.3125 35.345 20.6633 35.625 21.0938 35.625H28.9062C29.3367 35.625 29.6875 35.345 29.6875 35C29.6875 34.655 29.3367 34.375 28.9062 34.375Z" fill="black"/>
<path d="M10.4797 32.5L13.2813 34.7412L18.7336 30.3794C18.0758 29.4394 17.1844 28.6681 16.2227 27.9062L10.4797 32.5Z" fill="#FFCC17"/>
<path d="M44.7867 25.9875C44.2953 25.0444 44.5531 23.9931 45.4328 23.2888L45.4656 23.2625L44.3594 22.3775L44.3266 22.4038C43.4461 23.1088 42.1297 23.315 40.9774 22.9288C39.8047 22.5413 39.0625 21.6538 39.0625 20.6594V20.625H39.0375C38.9461 21.8631 38.5828 22.8806 38.0539 23.7587C38.1305 23.7562 38.2047 23.75 38.2813 23.75C41.2969 23.75 43.75 25.7131 43.75 28.125C43.75 30.5369 41.2969 32.5 38.2813 32.5C35.4961 32.5 33.1953 30.8244 32.8594 28.6681C31.9727 29.4431 31.2109 30.2819 30.725 31.3319C31.0484 31.6537 31.25 32.0563 31.25 32.5C31.25 32.6838 31.2063 32.8575 31.1445 33.0256L32.2031 33.8725L32.2359 33.8462C33.1156 33.1419 34.4297 32.935 35.5852 33.3206C36.7578 33.7094 37.5 34.5962 37.5 35.5906V35.625H39.0625V35.5906C39.0625 34.5962 39.8047 33.7087 40.9531 33.3294C42.1305 32.9344 43.4453 33.1412 44.3274 33.8462L44.3602 33.8725L45.4664 32.9875L45.4336 32.9612C44.5539 32.2569 44.2961 31.205 44.7774 30.2825C45.2609 29.3437 46.3703 28.75 47.6133 28.75H47.6563V27.5H47.6133C46.3703 27.5 45.2609 26.9063 44.7867 25.9875Z" fill="#454545"/>
<path d="M28.9062 31.875H21.0938C20.6633 31.875 20.3125 32.155 20.3125 32.5C20.3125 32.845 20.6633 33.125 21.0938 33.125H28.9062C29.3367 33.125 29.6875 32.845 29.6875 32.5C29.6875 32.155 29.3367 31.875 28.9062 31.875Z" fill="black"/>
<path d="M3.77579 34.6371L6.70391 36.9796L11.8789 35.3871L5.76641 30.4971L3.77579 34.6371Z" fill="#DDC3C3"/>
<path d="M5.46875 16.875H26.5625C27.8547 16.875 28.9062 16.0338 28.9062 15C28.9062 13.9662 27.8547 13.125 26.5625 13.125C25.2703 13.125 24.2188 13.9662 24.2188 15H22.6562C22.6562 13.7775 23.5469 12.7275 24.8281 12.2144C24.9328 11.9006 25 11.5788 25 11.25C25 9.18187 22.8977 7.5 20.3125 7.5C17.95 7.5 15.9961 8.90625 15.6758 10.7263C16.9938 11.02 17.9688 11.9781 17.9688 13.125H16.4062C16.4062 12.4356 15.7055 11.875 14.8438 11.875C13.982 11.875 13.2812 12.4356 13.2812 13.125H11.7188C11.7188 11.9519 12.7375 10.9725 14.1016 10.7037C14.3211 9.09687 15.4977 7.71937 17.1633 6.93812C16.0664 5.36875 14.0039 4.375 11.7188 4.375C8.27266 4.375 5.46875 6.61813 5.46875 9.375C5.46875 9.8025 5.53594 10.2244 5.66875 10.6331C8.16016 10.7175 10.1562 12.3613 10.1562 14.375H8.59375C8.59375 12.9962 7.19219 11.875 5.46875 11.875C3.74531 11.875 2.34375 12.9962 2.34375 14.375C2.34375 15.7538 3.74531 16.875 5.46875 16.875Z" fill="#8C8C8C"/>
<path d="M9.375 31.6164L15.107 27.0308C14.1773 26.2971 13.2672 25.5283 12.5344 24.6064L6.57344 29.3752L9.375 31.6164Z" fill="#FFCC17"/>
<path d="M2.37891 37.5418C2.35625 37.5912 2.34375 37.6431 2.34375 37.6956C2.34375 37.9856 2.73516 38.2012 3.07344 38.0962L5.10781 37.47L3.16172 35.9131L2.37891 37.5418Z" fill="black"/>
</svg>
