<svg width="50" height="34" viewBox="0 0 50 34" fill="none" xmlns="http://www.w3.org/2000/svg">
<g clip-path="url(#clip0)">
<g opacity="0.5">
<path d="M6 5V6.87625H24.2172V5H23.0453H7.17188H6V5Z" fill="#48494D"/>
<path d="M36 5V6.87625H40.1977V5H39.0258H37.1719H36Z" fill="#48494D"/>
<path d="M7 9V10.8762H19.9055V9H18.7336H8.17187H7V9Z" fill="#48494D"/>
<path d="M27 5V6.87625H33.5586V5H32.3852H28.1719H27Z" fill="#48494D"/>
<path d="M23 9V10.8762H29.5586V9H28.3852H24.1719H23Z" fill="#48494D"/>
<path d="M7 15V16.8762H22.0437V15H20.8703H8.17187H7V15Z" fill="#48494D"/>
<path d="M7 19V21H29V19H28.0434H7.95658H7V19Z" fill="#48494D"/>
<path d="M32.3897 6L32.0849 6.19128L30 7.49991L32.0849 8.80854L32.3897 9L33 8.61726L32.6947 8.42544L31.2201 7.49991L32.6947 6.57401L33 6.38274L32.3897 6Z" fill="#48494D"/>
<path d="M36.6098 6L36 6.38274L37.7799 7.49991L36.3047 8.42544L36 8.61726L36.6098 9L36.9151 8.80854L39 7.49991L36.9151 6.19128L36.6098 6Z" fill="#48494D"/>
</g>
<path d="M40.4615 11.2773H37V12.2004H40.4615V11.2773Z" fill="#DE00BB"/>
<path opacity="0.5" d="M32 18V19.8762H38.5586V18H37.3852H33.1719H32Z" fill="#494549"/>
<path opacity="0.5" d="M34 22V23.8762H40.5586V22H39.3852H35.1719H34Z" fill="#494549"/>
<path d="M40.8462 31.0923H36.5385C36.2308 31.0923 36 31.2769 36 31.5231C36 31.7692 36.2308 31.9538 36.5385 31.9538H40.8462C41.1538 31.9538 41.3846 31.7692 41.3846 31.5231C41.4615 31.3384 41.1538 31.0923 40.8462 31.0923Z" fill="#DE00BB"/>
<path d="M48.2308 9.6771H43.3077V1.86172C43.3077 0.938642 42.3846 0.261719 41.3077 0.261719H5.15385C4.00001 0.261719 3.07693 1.00018 3.07693 1.86172V21.6156H-0.153839V23.4617L2.00001 25.7386H28.5385V32.2002C28.5385 33.0617 29.3846 33.7386 30.4615 33.7386H48.2308C49.3077 33.7386 50.1539 33.0617 50.1539 32.2002V11.2156C50.1539 10.354 49.3077 9.6771 48.2308 9.6771ZM49 11.2156V13.0617H29.6923V11.2156C29.6923 10.8463 30.0769 10.6002 30.4615 10.6002H48.2308C48.6923 10.6002 49 10.8463 49 11.2156ZM29.6923 13.9848H49V29.3694H29.6923V13.9848ZM5.15385 1.1848H41.3077C41.7692 1.1848 42.1539 1.49249 42.1539 1.86172V3.40018H4.23078V1.86172C4.23078 1.49249 4.61539 1.1848 5.15385 1.1848ZM4.23078 4.32326H42.1539V9.6771H30.4615C29.3846 9.6771 28.5385 10.354 28.5385 11.2156V21.6771H4.23078V4.32326ZM2.53847 24.8156L1.00001 23.154V22.5386H28.5385V24.8156H2.53847ZM48.2308 32.8156H30.4615C30 32.8156 29.6923 32.5079 29.6923 32.2002V30.2925H49V32.2002C49 32.5694 48.6923 32.8156 48.2308 32.8156Z" fill="#DE00BB"/>
<path d="M15.3846 9.98486C13.3846 9.98486 11.6923 11.2772 11.6923 12.9387C11.6923 14.5387 13.3077 15.8926 15.3846 15.8926C17.3846 15.8926 19.0769 14.6002 19.0769 12.9387C19.0769 12.1387 18.6923 11.4002 18 10.8464C17.3077 10.2926 16.3846 9.98486 15.3846 9.98486ZM15.3846 14.9079V15.3387V14.9079C14 14.9079 12.8462 13.9849 12.8462 12.8772C12.8462 11.7695 14 10.8464 15.3846 10.8464C16.0769 10.8464 16.6923 11.0926 17.1539 11.4618C17.6154 11.831 17.9231 12.3849 17.9231 12.8772C17.9231 14.0464 16.7692 14.9079 15.3846 14.9079Z" fill="#DE00BB"/>
<path d="M43.0769 19.5234L42.3077 20.2619L44.5385 21.6773L42.3077 23.1542L43.0769 23.8311L46.3846 21.6773L43.0769 19.5234Z" fill="#DE00BB"/>
<path d="M35.6154 19.5234L32.3846 21.6773L35.6154 23.8311L36.3846 23.1542L34.1538 21.6773L36.3846 20.2619L35.6154 19.5234Z" fill="#DE00BB"/>
<path d="M36.6597 25.062L37.694 25.4712L42.0929 18.3552L41.0586 17.946L36.6597 25.062Z" fill="#DE00BB"/>
<path d="M33 9.25322L33.6509 9.51074L36.28 5.25774L35.6291 5.00022L33 9.25322Z" fill="#DE00BB"/>
<path d="M24.1539 14.1695V11.6464L22.3846 11.4003C22.2308 10.908 22 10.4772 21.6923 10.0464L22.7692 8.87719L20.5385 7.09257L19 7.89257C18.4616 7.64642 17.9231 7.4618 17.3077 7.33872L17 5.92334H13.8462L13.5385 7.33872C12.9231 7.4618 12.3846 7.64642 11.8462 7.89257L10.3846 7.03103L8.15386 8.75411L9.15386 9.98488C8.84617 10.4156 8.6154 10.8464 8.46155 11.3387L6.69232 11.5849V14.108L8.46155 14.3541C8.6154 14.8464 8.84617 15.2772 9.15386 15.708L8.07694 16.8772L10.3077 18.6618L11.8462 17.8618C12.3846 18.108 12.9231 18.2926 13.5385 18.4156L13.8462 19.831H17L17.3077 18.4156C17.9231 18.2926 18.4616 18.108 19 17.8618L20.4616 18.7233L22.6923 16.9387L21.6923 15.708C22 15.2772 22.2308 14.8464 22.3846 14.3541L24.1539 14.1695ZM21.3846 13.6772L21.3077 13.9849C21.1539 14.5387 20.8462 15.0926 20.4616 15.5849L20.2308 15.831L21.1539 16.8772L20.3077 17.5541L19 16.8156L18.6923 17.0003C18.0769 17.308 17.3846 17.5541 16.6923 17.6772L16.3077 17.7387L16 19.031H14.7692L14.4616 17.7387L14.0769 17.6772C13.3846 17.5541 12.6923 17.308 12.0769 17.0003L11.7692 16.8156L10.4616 17.5541L9.6154 16.8772L10.5385 15.831L10.3077 15.5849C9.92309 15.0926 9.6154 14.5387 9.46155 13.9849L9.38463 13.6156L7.76925 13.3695V12.3849L9.38463 12.1387L9.46155 11.831C9.6154 11.2772 9.92309 10.7233 10.3077 10.231L10.5385 9.98488L9.6154 8.93872L10.4616 8.2618L11.7692 9.00026L12.0769 8.81565C12.6923 8.50796 13.3846 8.2618 14.0769 8.13872L14.4616 8.07719L14.7692 6.78488H16L16.3077 8.07719L16.6923 8.13872C17.3846 8.2618 18.0769 8.50796 18.6923 8.81565L19 9.00026L20.3077 8.2618L21.1539 8.93872L20.2308 9.98488L20.4616 10.231C20.8462 10.7233 21.1539 11.2772 21.3077 11.831L21.3846 12.1387L23 12.3849V13.3695L21.3846 13.6772Z" fill="#DE00BB"/>
<path opacity="0.5" d="M31 15V16.8762H42.107V15H40.9352H32.1734H31V15Z" fill="#494549"/>
<path opacity="0.5" d="M32 26V27.8762H38.5586V26H37.3852H33.1719H32Z" fill="#494549"/>
</g>
<defs>
<clipPath id="clip0">
<rect width="50" height="34" fill="white"/>
</clipPath>
</defs>
</svg>
