<svg width="33" height="42" viewBox="0 0 33 42" fill="none" xmlns="http://www.w3.org/2000/svg">
<g clip-path="url(#clip0)">
<path d="M23.012 14.611C18.957 8.14603 16.763 0.734029 16.742 0.660029C16.679 0.445029 16.321 0.445029 16.258 0.660029C16.237 0.734029 14.045 8.14403 9.98802 14.611C7.58502 18.441 5.94802 24.279 8.03202 28.047C9.44602 30.604 12.295 32.5 16.5 32.5C20.705 32.5 23.554 30.604 24.968 28.047C27.052 24.279 25.416 18.441 23.012 14.611ZM16.821 31.037C16.798 31.037 16.774 31.037 16.75 31.033C13.793 30.758 11.588 29.748 10.196 28.033C8.39402 25.814 8.66502 23.244 8.67702 23.135C8.72502 22.721 9.10202 22.422 9.51502 22.469C9.92902 22.518 10.226 22.891 10.181 23.305C10.178 23.336 9.98302 25.385 11.385 27.098C12.512 28.475 14.365 29.293 16.891 29.528C17.307 29.567 17.613 29.936 17.574 30.352C17.536 30.744 17.207 31.037 16.821 31.037Z" fill="#FF0000"/>
</g>
<defs>
<clipPath id="clip0">
<rect width="33" height="41.25" fill="white"/>
</clipPath>
</defs>
</svg>
